<?xml version="1.0" encoding="utf-8"?>
<!-- Generator: Adobe Illustrator 21.1.0, SVG Export Plug-In . SVG Version: 6.00 Build 0)  -->
<svg version="1.1" id="Capa_1" xmlns="http://www.w3.org/2000/svg" xmlns:xlink="http://www.w3.org/1999/xlink" x="0px" y="0px"
	 viewBox="0 0 469.3 469.3" style="enable-background:new 0 0 469.3 469.3;" xml:space="preserve">
<style type="text/css">
	.st0{fill:#DC2E2E;}
</style>
<g>
	<g>
		<path class="st0" d="M373.3,42.7C343.9,42.7,320,66.6,320,96s23.9,53.3,53.3,53.3s53.3-23.9,53.3-53.3
			C426.7,66.6,402.8,42.7,373.3,42.7z M373.3,128c-17.6,0-32-14.4-32-32s14.4-32,32-32s32,14.4,32,32S391,128,373.3,128z"/>
	</g>
</g>
<g>
	<g>
		<path class="st0" d="M128,0C69.2,0,21.3,47.9,21.3,106.7S69.2,213.3,128,213.3c58.8,0,106.7-47.9,106.7-106.7S186.8,0,128,0z
			 M128,192c-47.1,0-85.3-38.3-85.3-85.3S80.9,21.3,128,21.3c47.1,0,85.3,38.3,85.3,85.3C213.3,153.7,175.1,192,128,192z"/>
	</g>
</g>
<g>
	<g>
		<path class="st0" d="M445.8,153.5c-3.6-4.7-10.3-5.6-14.9-2l-38.3,29.4c-4-3.8-8.7-6.9-14.2-8.6c0,0,0,0,0,0
			c-6.2-2-19.7-2.9-30.6,1.6l-88.3,39.5h-78c-17.7,0-32,14.4-32,32s14.4,32,32,32h85.3c5,0,9.9-1.2,13.9-3.2l39-17.4l-12.9,50.9
			l-149.9-9c-12.2-0.9-24.1,4.7-31.6,14.4l-74.7,96c-6.1,7.9-8.8,17.6-7.6,27.5c1.2,9.9,6.2,18.7,14.1,24.8
			c6.6,5.1,14.5,7.9,22.9,7.9c11.6,0,22.4-5.2,29.5-14.4l62.6-80.5l158.3,9.5l4.6,0.1c11.4,0,21.6-6.1,28.4-15.4l46.2,34.6
			c1.9,1.4,4.2,2.1,6.4,2.1c3.2,0,6.4-1.5,8.5-4.3c3.5-4.7,2.6-11.4-2.1-14.9l-50.7-38l32.4-127.5c1.8-7.2,1.5-14.6-0.5-21.4
			l40.2-30.8C448.5,164.9,449.4,158.2,445.8,153.5z M271.5,254.9c-1.5,0.7-3.1,1.1-4.8,1.1h-85.3c-5.9,0-10.7-4.8-10.7-10.7
			s4.8-10.7,10.7-10.7h80.3c1.5,0,3-0.3,4.4-0.9l90-40.2c5.6-2.3,13.9-1.5,15.8-0.9c1.1,0.4,2,1.2,3.1,1.8L331,228.1
			c-0.2,0.2-0.3,0.4-0.5,0.5L271.5,254.9z M335,362.7l-167.2-9.9c-3.8-0.3-6.9,1.3-9.1,4.1l-66.1,84.9c-5.3,6.7-15.6,8.1-22.5,2.8
			c-7-5.4-8.2-15.5-2.8-22.5l74.7-96c3-3.9,7.8-6.2,12.7-6.2c0.3,0,0.6,0,0.8,0l156.3,9.4c0.5,0.6,1,1.3,1.7,1.9l32.8,24.6
			C343.7,360,339.5,362.7,335,362.7z M383.4,215.4l-30.2,118.9L327,314.6l17.8-70.3l38.6-29.6C383.4,214.9,383.5,215.2,383.4,215.4z
			"/>
	</g>
</g>
</svg>
