<?xml version="1.0"?>
<svg xmlns="http://www.w3.org/2000/svg" xmlns:xlink="http://www.w3.org/1999/xlink" version="1.1" id="Capa_1" x="0px" y="0px" viewBox="0 0 512 512" style="enable-background:new 0 0 512 512;" xml:space="preserve" width="512px" height="512px" class=""><g><g>
	<g>
		<path d="M450.909,167.279C440.03,163.112,428.557,161,416.808,161c-19.368,0-37.784,5.682-53.603,16.484    C347.386,166.682,328.97,161,309.603,161s-37.784,5.682-53.603,16.484C240.181,166.682,221.765,161,202.397,161    c-19.368,0-37.783,5.682-53.603,16.484C132.976,166.682,114.56,161,95.192,161C42.703,161,0,203.617,0,256s42.703,95,95.192,95    c19.368,0,37.784-5.682,53.603-16.484C164.614,345.318,183.03,351,202.397,351s37.784-5.682,53.603-16.484    c9.978,6.813,21.006,11.588,32.857,14.219c4.042,0.898,8.049-1.653,8.947-5.696c0.898-4.044-1.653-8.05-5.696-8.948    c-11.529-2.56-22.135-7.532-31.525-14.779c-2.7-2.083-6.465-2.083-9.165,0C237.271,330.229,220.321,336,202.397,336    c-17.924,0-34.874-5.771-49.02-16.688c-2.7-2.083-6.465-2.083-9.165,0C130.066,330.229,113.116,336,95.192,336    C50.974,336,15,300.112,15,256s35.974-80,80.192-80c17.923,0,34.874,5.771,49.02,16.688c2.7,2.083,6.465,2.083,9.165,0    C167.523,181.771,184.474,176,202.397,176c17.923,0,34.874,5.771,49.02,16.688c2.7,2.083,6.465,2.083,9.165,0    C274.729,181.771,291.679,176,309.603,176s34.874,5.771,49.02,16.688c2.7,2.083,6.465,2.083,9.165,0    C381.934,181.771,398.884,176,416.808,176c9.908,0,19.576,1.779,28.735,5.287c3.87,1.481,8.205-0.453,9.687-4.321    C456.711,173.098,454.777,168.761,450.909,167.279z" data-original="#000000" class="active-path" data-old_color="#000000" fill="#FFFFFF"/>
	</g>
</g><g>
	<g>
		<path d="M416.81,185.544c-14.607,0-28.646,4.449-40.6,12.866c-1.645,1.158-2.755,2.928-3.083,4.913    c-0.327,1.984,0.157,4.017,1.343,5.642c10.026,13.734,15.325,29.999,15.325,47.036c0,17.037-5.299,33.302-15.326,47.037    c-1.186,1.625-1.669,3.657-1.343,5.642c0.328,1.983,1.438,3.753,3.083,4.911c11.954,8.417,25.993,12.867,40.601,12.867    c38.925,0,70.594-31.608,70.594-70.459C487.404,217.15,455.736,185.544,416.81,185.544z M416.809,311.458    c-9.045,0-17.814-2.167-25.726-6.318c8.994-14.792,13.711-31.623,13.711-49.14c0.001-17.517-4.716-34.347-13.71-49.139    c7.912-4.15,16.68-6.317,25.725-6.317c30.654,0,55.594,24.877,55.594,55.455C472.403,286.579,447.464,311.458,416.809,311.458z" data-original="#000000" class="active-path" data-old_color="#000000" fill="#FFFFFF"/>
	</g>
</g><g>
	<g>
		<path d="M369.571,218.876c-1.37-2.197-3.775-3.532-6.364-3.532c-2.589,0-4.995,1.335-6.364,3.532    c-6.952,11.149-10.627,23.986-10.627,37.123c0,13.137,3.675,25.975,10.627,37.125c1.37,2.197,3.775,3.532,6.364,3.532    c2.589,0,4.995-1.335,6.364-3.532c6.952-11.151,10.627-23.989,10.627-37.125C380.198,242.864,376.523,230.027,369.571,218.876z     M363.207,270.693c-1.316-4.761-1.991-9.7-1.991-14.694c0-4.994,0.675-9.932,1.991-14.692c1.315,4.76,1.991,9.699,1.991,14.692    C365.198,260.993,364.522,265.932,363.207,270.693z" data-original="#000000" class="active-path" data-old_color="#000000" fill="#FFFFFF"/>
	</g>
</g><g>
	<g>
		<path d="M244.737,303.038c-10.027-13.735-15.327-30-15.327-47.039c0-17.038,5.3-33.303,15.326-47.038    c1.186-1.625,1.669-3.658,1.342-5.643c-0.327-1.984-1.438-3.754-3.083-4.913c-11.953-8.415-25.991-12.863-40.597-12.863    c-14.607,0-28.646,4.449-40.6,12.866c-1.645,1.158-2.755,2.928-3.083,4.913c-0.327,1.984,0.157,4.018,1.343,5.642    c10.026,13.733,15.325,29.998,15.325,47.036c0,17.037-5.299,33.302-15.326,47.037c-1.186,1.625-1.669,3.657-1.343,5.642    c0.329,1.985,1.44,3.755,3.084,4.913c11.954,8.417,25.994,12.867,40.601,12.867c14.606,0,28.645-4.449,40.598-12.865    c1.645-1.158,2.755-2.928,3.082-4.913C246.407,306.696,245.923,304.662,244.737,303.038z M202.4,311.458    c-9.045,0-17.814-2.167-25.726-6.318c8.994-14.792,13.711-31.623,13.711-49.14c0-17.517-4.717-34.348-13.71-49.139    c7.911-4.15,16.68-6.317,25.725-6.317c9.043,0,17.811,2.167,25.722,6.316c-8.994,14.792-13.711,31.623-13.711,49.14    c0,17.518,4.717,34.349,13.712,49.142C220.212,309.291,211.444,311.458,202.4,311.458z" data-original="#000000" class="active-path" data-old_color="#000000" fill="#FFFFFF"/>
	</g>
</g><g>
	<g>
		<path d="M137.532,303.037c-10.027-13.735-15.327-30-15.327-47.039c0-4.142-3.358-7.5-7.5-7.5c-4.142,0-7.5,3.358-7.5,7.5    c0,17.518,4.717,34.349,13.712,49.142c-7.911,4.149-16.679,6.316-25.723,6.316c-30.654,0-55.594-24.879-55.594-55.459    c0-30.578,24.939-55.455,55.594-55.455c9.045,0,17.814,2.167,25.726,6.318c-2.813,4.636-5.224,9.503-7.2,14.543    c-1.512,3.858,0.388,8.21,4.244,9.722c3.854,1.511,8.208-0.388,9.721-4.244c2.491-6.353,5.804-12.381,9.847-17.919    c1.186-1.625,1.669-3.658,1.342-5.642c-0.327-1.985-1.438-3.755-3.083-4.913c-11.953-8.416-25.991-12.864-40.597-12.864    c-38.925,0-70.594,31.606-70.594,70.455c0,38.851,31.668,70.459,70.594,70.459c14.606,0,28.645-4.449,40.598-12.865    c1.645-1.158,2.755-2.928,3.082-4.913C139.202,306.695,138.718,304.661,137.532,303.037z" data-original="#000000" class="active-path" data-old_color="#000000" fill="#FFFFFF"/>
	</g>
</g><g>
	<g>
		<path d="M351.942,303.039c-10.027-13.735-15.327-30-15.327-47.039s5.3-33.304,15.326-47.038c1.186-1.625,1.669-3.658,1.342-5.642    c-0.327-1.985-1.438-3.755-3.083-4.913c-11.953-8.415-25.991-12.863-40.597-12.863c-14.607,0-28.646,4.449-40.6,12.866    c-1.645,1.158-2.755,2.928-3.083,4.913c-0.327,1.984,0.157,4.018,1.343,5.642c10.026,13.733,15.325,29.998,15.325,47.036    c0,17.037-5.299,33.302-15.326,47.037c-1.186,1.625-1.669,3.657-1.343,5.642c0.327,1.984,1.438,3.754,3.083,4.913    c11.954,8.417,25.993,12.867,40.601,12.867c14.605,0,28.644-4.448,40.598-12.865c1.646-1.159,2.757-2.929,3.084-4.914    C353.612,306.697,353.128,304.663,351.942,303.039z M309.604,311.458c-9.045,0-17.814-2.167-25.726-6.318    c8.994-14.792,13.711-31.623,13.711-49.14s-4.717-34.348-13.71-49.139c7.911-4.15,16.68-6.317,25.725-6.317    c9.043,0,17.811,2.167,25.722,6.316c-8.994,14.792-13.711,31.623-13.711,49.14c0,17.517,4.717,34.349,13.712,49.141    C327.416,309.291,318.648,311.458,309.604,311.458z" data-original="#000000" class="active-path" data-old_color="#000000" fill="#FFFFFF"/>
	</g>
</g><g>
	<g>
		<path d="M480.908,185.766c-3.066-2.787-7.809-2.563-10.595,0.502c-2.787,3.064-2.562,7.808,0.502,10.594    C487.456,211.997,497,233.551,497,256c0,44.112-35.974,80-80.192,80c-17.923,0-34.874-5.771-49.02-16.688    c-2.7-2.083-6.465-2.083-9.165,0c-11.425,8.818-25.018,14.388-39.309,16.108c-4.112,0.495-7.045,4.23-6.55,8.343    c0.495,4.112,4.229,7.044,8.343,6.55c15.1-1.818,29.54-7.251,42.094-15.799C379.021,345.318,397.437,351,416.808,351    C469.297,351,512,308.383,512,256C512,229.335,500.667,203.736,480.908,185.766z" data-original="#000000" class="active-path" data-old_color="#000000" fill="#FFFFFF"/>
	</g>
</g><g>
	<g>
		<path d="M155.161,218.876c-1.37-2.197-3.775-3.532-6.364-3.532s-4.995,1.335-6.364,3.532    c-6.952,11.149-10.627,23.986-10.627,37.123c0,13.137,3.675,25.975,10.627,37.125c1.369,2.197,3.775,3.532,6.364,3.532    s4.995-1.335,6.364-3.532c6.952-11.15,10.627-23.988,10.627-37.125C165.788,242.863,162.113,230.026,155.161,218.876z     M148.797,270.693c-1.316-4.761-1.991-9.7-1.991-14.694c0-4.994,0.675-9.932,1.991-14.692c1.315,4.76,1.991,9.699,1.991,14.692    C150.788,260.993,150.113,265.932,148.797,270.693z" data-original="#000000" class="active-path" data-old_color="#000000" fill="#FFFFFF"/>
	</g>
</g><g>
	<g>
		<path d="M262.366,218.876c-1.37-2.197-3.775-3.532-6.364-3.532c-2.589,0-4.995,1.335-6.364,3.532    c-6.952,11.149-10.627,23.986-10.627,37.123c0,13.137,3.675,25.975,10.627,37.125c1.369,2.197,3.775,3.532,6.364,3.532    s4.995-1.335,6.364-3.532c6.952-11.15,10.627-23.988,10.627-37.125C272.993,242.863,269.318,230.026,262.366,218.876z     M256.002,270.693c-1.316-4.761-1.991-9.7-1.991-14.694c0-4.994,0.676-9.932,1.991-14.692c1.315,4.76,1.991,9.699,1.991,14.692    C257.993,260.993,257.318,265.932,256.002,270.693z" data-original="#000000" class="active-path" data-old_color="#000000" fill="#FFFFFF"/>
	</g>
</g></g> </svg>
