<?xml version="1.0"?>
<svg xmlns="http://www.w3.org/2000/svg" xmlns:xlink="http://www.w3.org/1999/xlink" version="1.1" id="Capa_1" x="0px" y="0px" viewBox="0 0 512 512" style="enable-background:new 0 0 512 512;" xml:space="preserve" width="512px" height="512px"><g><g>
	<g>
		<path d="M265.987,24.24c-3.716,0-7.156,1.178-9.987,3.168c-2.831-1.99-6.272-3.168-9.988-3.168    c-9.609,0-17.426,7.817-17.426,17.426v33.616c0,4.142,3.358,7.5,7.5,7.5c4.142,0,7.5-3.358,7.5-7.5V41.667    c0-1.338,1.089-2.426,2.427-2.426s2.426,1.088,2.426,2.426v33.616c0,4.142,3.358,7.5,7.5,7.5c0.021,0,0.041-0.003,0.061-0.003    c0.021,0,0.04,0.003,0.061,0.003c4.142,0,7.5-3.358,7.5-7.5V41.667c0-1.338,1.088-2.426,2.426-2.426    c1.338,0,2.427,1.088,2.427,2.426v33.616c0,4.142,3.357,7.5,7.5,7.5s7.5-3.358,7.5-7.5V41.667    C283.414,32.058,275.597,24.24,265.987,24.24z" data-original="#000000" class="active-path" data-old_color="#000000" fill="#FFFFFF"/>
	</g>
</g><g>
	<g>
		<path d="M181.23,75.719c-1.933-3.386-4.842-5.986-8.333-7.549c0.412-3.691-0.278-7.536-2.256-11    c-4.969-8.706-16.095-11.746-24.8-6.777L126.98,61.159c-3.598,2.053-4.849,6.634-2.796,10.231l10.588,18.55l10.588,18.55    c1.384,2.425,3.916,3.784,6.521,3.784c1.26,0,2.538-0.318,3.711-0.988l18.861-10.766C183.159,95.551,186.199,84.425,181.23,75.719    z M144.08,75.99l-3.152-5.522l12.348-7.048c1.522-0.87,3.468-0.338,4.337,1.185c0.869,1.522,0.337,3.468-1.185,4.337L144.08,75.99    z M167.017,87.493l-12.348,7.048l-3.153-5.523l6.703-3.826l5.646-3.222c0.994-0.568,1.939-0.436,2.414-0.306    c0.475,0.129,1.355,0.496,1.923,1.491C169.071,84.678,168.54,86.624,167.017,87.493z" data-original="#000000" class="active-path" data-old_color="#000000" fill="#FFFFFF"/>
	</g>
</g><g>
	<g>
		<path d="M385.396,62.052c-3.599-2.052-8.179-0.8-10.231,2.798l-16.657,29.2c-0.434,0.759-1.104,1.039-1.467,1.138    c-0.363,0.099-1.082,0.2-1.843-0.233c-0.759-0.433-1.038-1.105-1.138-1.467c-0.099-0.362-0.2-1.083,0.233-1.842l16.656-29.199    c2.053-3.598,0.8-8.179-2.799-10.231c-0.015-0.009-0.031-0.015-0.047-0.024c-0.02-0.012-0.038-0.025-0.058-0.037    c-3.598-2.053-8.179-0.8-10.231,2.798l-16.657,29.198c-0.663,1.163-2.148,1.57-3.31,0.906c-1.162-0.663-1.568-2.148-0.905-3.311    l16.657-29.198c2.053-3.598,0.8-8.178-2.798-10.231c-3.599-2.052-8.179-0.799-10.231,2.798l-16.657,29.198    c-4.761,8.346-1.845,19.01,6.502,23.772c2.717,1.55,5.68,2.286,8.605,2.286c0.547,0,1.091-0.035,1.633-0.086    c1.513,3.219,3.958,5.899,7.111,7.697c2.667,1.521,5.619,2.298,8.608,2.298c1.543,0,3.096-0.207,4.624-0.625    c4.49-1.228,8.233-4.131,10.539-8.174l16.657-29.199C390.247,68.686,388.994,64.105,385.396,62.052z" data-original="#000000" class="active-path" data-old_color="#000000" fill="#FFFFFF"/>
	</g>
</g><g>
	<g>
		<path d="M437.02,74.98C388.668,26.629,324.38,0,256,0C193.958,0,134.107,22.478,87.473,63.292    c-3.117,2.728-3.432,7.466-0.704,10.583c2.729,3.118,7.467,3.432,10.583,0.704C141.251,36.159,197.593,15,256,15    c132.888,0,241,108.112,241,241S388.888,497,256,497S15,388.888,15,256c0-56.646,20.041-111.685,56.43-154.976    c2.665-3.17,2.255-7.902-0.916-10.567c-3.171-2.665-7.902-2.256-10.567,0.916C21.29,137.363,0,195.829,0,256    c0,68.38,26.629,132.667,74.98,181.02C123.333,485.371,187.62,512,256,512s132.668-26.629,181.02-74.98    C485.371,388.667,512,324.38,512,256S485.371,123.333,437.02,74.98z" data-original="#000000" class="active-path" data-old_color="#000000" fill="#FFFFFF"/>
	</g>
</g><g>
	<g>
		<path d="M256,90.5c-91.257,0-165.5,74.243-165.5,165.5S164.743,421.5,256,421.5S421.5,347.257,421.5,256S347.257,90.5,256,90.5z     M248.5,105.687V248.5H105.687C109.486,171.47,171.47,109.486,248.5,105.687z M263.5,406.313v-22.479c0-4.142-3.357-7.5-7.5-7.5    c-4.142,0-7.5,3.358-7.5,7.5v22.479c-77.03-3.799-139.014-65.783-142.813-142.813H248.5v88.167c0,4.142,3.358,7.5,7.5,7.5    c4.143,0,7.5-3.358,7.5-7.5V263.5H288c4.143,0,7.5-3.358,7.5-7.5c0-4.142-3.357-7.5-7.5-7.5h-24.5V105.687    c77.031,3.799,139.014,65.783,142.813,142.813H320.5c-4.143,0-7.5,3.358-7.5,7.5c0,4.142,3.357,7.5,7.5,7.5h85.813    C402.514,340.53,340.531,402.514,263.5,406.313z" data-original="#000000" class="active-path" data-old_color="#000000" fill="#FFFFFF"/>
	</g>
</g></g> </svg>
