<?xml version="1.0" encoding="utf-8"?>
<!-- Generator: Adobe Illustrator 21.1.0, SVG Export Plug-In . SVG Version: 6.00 Build 0)  -->
<svg version="1.1" id="Capa_1" xmlns="http://www.w3.org/2000/svg" xmlns:xlink="http://www.w3.org/1999/xlink" x="0px" y="0px"
	 viewBox="0 0 464.1 464.1" style="enable-background:new 0 0 464.1 464.1;" xml:space="preserve">
<style type="text/css">
	.st0{fill:#DC2E2E;}
</style>
<g>
	<g>
		<path class="st0" d="M240,104.1c-70.7,0-128,57.3-128,128c0.1,70.7,57.3,127.9,128,128c70.7,0,128-57.3,128-128
			S310.7,104.1,240,104.1z M240,344.1c-61.9,0-112-50.1-112-112c0.1-61.8,50.2-111.9,112-112c61.9,0,112,50.1,112,112
			S301.9,344.1,240,344.1z"/>
	</g>
</g>
<g>
	<g>
		<path class="st0" d="M312,208.1c-13.3,0-24,10.7-24,24s10.7,24,24,24s24-10.7,24-24S325.3,208.1,312,208.1z M312,240.1
			c-4.4,0-8-3.6-8-8s3.6-8,8-8s8,3.6,8,8S316.4,240.1,312,240.1z"/>
	</g>
</g>
<g>
	<g>
		<path class="st0" d="M168,208.1c-13.3,0-24,10.7-24,24s10.7,24,24,24s24-10.7,24-24S181.3,208.1,168,208.1z M168,240.1
			c-4.4,0-8-3.6-8-8s3.6-8,8-8s8,3.6,8,8S172.4,240.1,168,240.1z"/>
	</g>
</g>
<g>
	<g>
		<path class="st0" d="M240,280.1c-13.3,0-24,10.7-24,24s10.7,24,24,24s24-10.7,24-24S253.3,280.1,240,280.1z M240,312.1
			c-4.4,0-8-3.6-8-8s3.6-8,8-8s8,3.6,8,8S244.4,312.1,240,312.1z"/>
	</g>
</g>
<g>
	<g>
		<path class="st0" d="M240,136.1c-13.3,0-24,10.7-24,24s10.7,24,24,24s24-10.7,24-24S253.3,136.1,240,136.1z M240,168.1
			c-4.4,0-8-3.6-8-8s3.6-8,8-8s8,3.6,8,8S244.4,168.1,240,168.1z"/>
	</g>
</g>
<g>
	<g>
		<path class="st0" d="M394,69.3C352.4,29.9,297.3,8,240,8.1C182.8,7.9,127.7,29.8,86.2,69.3c-9.6-4.5-21.1-2-28,6.1
			c-77.6,90-77.6,223.4,0,313.4c4.4,5,10.6,8,17.2,8.3h0.9c3.4,0,6.8-0.8,9.9-2.2c89.9,85,231.7,81,316.7-8.9S483.9,154.3,394,69.3z
			 M82.1,378.7c-1.6,1.6-3.8,2.5-6,2.4c-2.2-0.1-4.3-1.1-5.7-2.7c-1.6-1.9-3.1-3.9-4.6-5.9l15.9-15.9l-11.3-11.3L56,359.5
			c-53.3-76.6-53.3-178.3,0-255h0l14.3,14.3l11.3-11.3L65.7,91.7c1.6-2,3-4,4.6-5.9c1.4-1.7,3.5-2.7,5.7-2.7h0.3
			c2.1,0,4.2,0.9,5.7,2.4l34,34c2.9,3,3.1,7.7,0.3,10.9c-48.6,59.1-48.6,144.3,0,203.3c2.7,3.2,2.6,7.9-0.3,10.9L82.1,378.7z
			 M240,440c-52.4,0-102.8-19.8-141.2-55.4l28.7-28.7c8.8-8.8,9.4-22.9,1.4-32.4c-43.7-53.2-43.7-129.8,0-183
			c8-9.5,7.4-23.6-1.4-32.4L98.7,79.5c84.3-78,215.9-73,293.9,11.3c35.6,38.4,55.3,88.9,55.4,141.3C448,346.9,354.8,440,240,440z"/>
	</g>
</g>
<g>
	<g>
		
			<rect x="339.5" y="116.6" transform="matrix(0.7069 -0.7074 0.7074 0.7069 13.771 282.3451)" class="st0" width="16" height="16"/>
	</g>
</g>
<g>
	<g>
		
			<rect x="373.4" y="105.3" transform="matrix(0.7071 -0.7071 0.7071 0.7071 31.6282 302.8846)" class="st0" width="16" height="16"/>
	</g>
</g>
<g>
	<g>
		
			<rect x="339.6" y="331.5" transform="matrix(0.7074 -0.7069 0.7069 0.7074 -138.2965 345.0524)" class="st0" width="16" height="16"/>
	</g>
</g>
<g>
	<g>
		
			<rect x="350.8" y="365.4" transform="matrix(0.7071 -0.7071 0.7071 0.7071 -158.9667 363.109)" class="st0" width="16" height="16"/>
	</g>
</g>
<g>
	<g>
		<rect x="384" y="224.1" class="st0" width="16" height="16"/>
	</g>
</g>
<g>
	<g>
		<rect x="416" y="240.1" class="st0" width="16" height="16"/>
	</g>
</g>
<g>
	<g>
		<rect x="232" y="72.1" class="st0" width="16" height="16"/>
	</g>
</g>
<g>
	<g>
		<rect x="232" y="376.1" class="st0" width="16" height="16"/>
	</g>
</g>
<g>
	<g>
		<rect x="248" y="40.1" class="st0" width="16" height="16"/>
	</g>
</g>
<g>
	<g>
		<rect x="216" y="408.1" class="st0" width="16" height="16"/>
	</g>
</g>
<g>
	<g>
		<path class="st0" d="M240,200.1c-17.7,0-32,14.3-32,32s14.3,32,32,32s32-14.3,32-32S257.7,200.1,240,200.1z M240,248.1
			c-8.8,0-16-7.2-16-16s7.2-16,16-16s16,7.2,16,16S248.8,248.1,240,248.1z"/>
	</g>
</g>
<g>
	<g>
		<path class="st0" d="M77.8,145.7l-14.1-7.6c-31.5,58.6-31.5,129.1,0,187.7l14.1-7.6C48.8,264.5,48.8,199.6,77.8,145.7z"/>
	</g>
</g>
<g>
	<g>
		
			<rect x="84.9" y="122.2" transform="matrix(0.7071 -0.7071 0.7071 0.7071 -64.8744 103.8543)" class="st0" width="16" height="16"/>
	</g>
</g>
<g>
	<g>
		
			<rect x="84.9" y="325.9" transform="matrix(0.7071 -0.7071 0.7071 0.7071 -208.8759 163.5018)" class="st0" width="16" height="16"/>
	</g>
</g>
</svg>
