<?xml version="1.0" encoding="utf-8"?>
<!-- Generator: Adobe Illustrator 21.1.0, SVG Export Plug-In . SVG Version: 6.00 Build 0)  -->
<svg version="1.1" id="Capa_1" xmlns="http://www.w3.org/2000/svg" xmlns:xlink="http://www.w3.org/1999/xlink" x="0px" y="0px"
	 viewBox="0 0 512 512" style="enable-background:new 0 0 512 512;" xml:space="preserve">
<style type="text/css">
	.st0{fill:#DC2E2E;}
</style>
<g>
	<g>
		<path class="st0" d="M418.1,0H281.6c-51.8,0-93.9,42.1-93.9,93.9v324.3c0,51.8,42.1,93.9,93.9,93.9h136.5
			c51.7,0,93.9-42.1,93.9-93.9V93.9C512,42.1,469.8,0,418.1,0z M494.9,418.1c0,42.4-34.5,76.8-76.8,76.8H281.6
			c-42.3,0-76.8-34.4-76.8-76.8V93.9c0-42.4,34.5-76.8,76.8-76.8h136.5c42.3,0,76.8,34.4,76.8,76.8L494.9,418.1L494.9,418.1z"/>
	</g>
</g>
<g>
	<g>
		<path class="st0" d="M273,42.7c-23.5,0-42.7,19.1-42.7,42.7c0,23.5,19.1,42.7,42.7,42.7c23.5,0,42.7-19.1,42.7-42.7
			C315.7,61.8,296.5,42.7,273,42.7z M273,110.9c-14.1,0-25.6-11.5-25.6-25.6s11.5-25.6,25.6-25.6c14.1,0,25.6,11.5,25.6,25.6
			S287.1,110.9,273,110.9z"/>
	</g>
</g>
<g>
	<g>
		<path class="st0" d="M384,145.1h-68.3c-42.3,0-76.8,34.4-76.8,76.8V256c0,4.7,3.8,8.5,8.5,8.5h204.8c4.7,0,8.5-3.8,8.5-8.5v-34.1
			C460.8,179.5,426.3,145.1,384,145.1z M443.7,247.5H256v-25.6c0-32.9,26.8-59.7,59.7-59.7H384c32.9,0,59.7,26.8,59.7,59.7
			L443.7,247.5L443.7,247.5z"/>
	</g>
</g>
<g>
	<g>
		<path class="st0" d="M452.2,349.9H247.4c-4.7,0-8.5,3.8-8.5,8.5v34.1c0,42.4,34.5,76.8,76.8,76.8H384c42.3,0,76.8-34.4,76.8-76.8
			v-34.1C460.8,353.7,456.9,349.9,452.2,349.9z M443.7,392.5c0,32.9-26.8,59.7-59.7,59.7h-68.3c-32.9,0-59.7-26.8-59.7-59.7v-25.6
			h187.7V392.5z"/>
	</g>
</g>
<g>
	<g>
		<path class="st0" d="M452.2,247.5H247.4c-4.7,0-8.5,3.8-8.5,8.5v102.4c0,4.7,3.8,8.5,8.5,8.5h204.8c4.7,0,8.5-3.8,8.5-8.5V256
			C460.8,251.3,456.9,247.5,452.2,247.5z M443.7,349.9H256v-85.3h187.7L443.7,349.9L443.7,349.9z"/>
	</g>
</g>
<g>
	<g>
		<path class="st0" d="M401,281.6H298.6c-4.7,0-8.5,3.8-8.5,8.5v34.1c0,4.7,3.8,8.5,8.5,8.5H401c4.7,0,8.5-3.8,8.5-8.5v-34.1
			C409.6,285.4,405.7,281.6,401,281.6z M392.5,315.7h-85.3v-17.1h85.3V315.7z"/>
	</g>
</g>
<g>
	<g>
		<path class="st0" d="M366.9,179.2h-34.1c-9.4,0-17.1,7.7-17.1,17.1v17.1c0,9.4,7.7,17.1,17.1,17.1h34.1c9.4,0,17.1-7.7,17.1-17.1
			v-17.1C384,186.9,376.3,179.2,366.9,179.2z M332.8,213.3v-17.1h34.1l0,17.1H332.8z"/>
	</g>
</g>
<g>
	<g>
		<path class="st0" d="M366.9,384h-34.1c-9.4,0-17.1,7.7-17.1,17.1v17.1c0,9.4,7.7,17.1,17.1,17.1h34.1c9.4,0,17.1-7.7,17.1-17.1
			v-17.1C384,391.7,376.3,384,366.9,384z M332.8,418.1v-17.1h34.1l0,17.1H332.8z"/>
	</g>
</g>
<g>
	<g>
		<path class="st0" d="M198.4,110.3c-3.8-1-7.7,0.7-9.6,4L3.3,439.8c-6.9,12-2.7,27.4,9.3,34.3l15.4,8.9c3.9,2.2,8.2,3.4,12.6,3.4
			c2.2,0,4.4-0.3,6.7-0.9c6.5-1.8,12-6,15.3-11.9l141-248.4c0.7-1.3,1.1-2.7,1.1-4.2V118.6C204.8,114.7,202.1,111.3,198.4,110.3z
			 M187.7,218.7L47.8,465.2c-1.1,1.9-2.8,3.3-4.9,3.8c-2.1,0.6-4.3,0.3-6.2-0.8l-15.4-8.9c-3.9-2.2-5.2-7.2-3-11.1l169.5-297.4
			L187.7,218.7L187.7,218.7z"/>
	</g>
</g>
</svg>
