<?xml version="1.0" encoding="utf-8"?>
<!-- Generator: Adobe Illustrator 21.1.0, SVG Export Plug-In . SVG Version: 6.00 Build 0)  -->
<svg version="1.1" id="Layer_1" xmlns="http://www.w3.org/2000/svg" xmlns:xlink="http://www.w3.org/1999/xlink" x="0px" y="0px"
	 viewBox="0 0 480 480" style="enable-background:new 0 0 480 480;" xml:space="preserve">
<style type="text/css">
	.st0{fill:#DC2E2E;}
</style>
<path class="st0" d="M476.4,153.3l-69.1-46l16.3-57.1c0.7-2.4,0.2-5-1.3-7c-1.5-2-3.9-3.2-6.4-3.2H288V24c0-13.3-10.7-24-24-24H24
	C10.7,0,0,10.7,0,24v448c0,4.4,3.6,8,8,8h272c4.4,0,8-3.6,8-8v-72h24v8c0,39.8,32.2,72,72,72s72-32.2,72-72v-48h8c4.4,0,8-3.6,8-8
	v-24c4.4,0,8-3.6,8-8V160C480,157.3,478.7,154.8,476.4,153.3z M464,248h-8v-40c0-0.9-0.1-1.7-0.4-2.5l-7.6-22.8v-29.1l16,10.7V248z
	 M432,142.9V184c0,0.9,0.1,1.7,0.4,2.5l7.6,22.8V256c0,4.4,3.6,8,8,8h16v48h-32V200c0-3-1.7-5.8-4.4-7.2l-39.1-19.5l14.2-49.9
	L432,142.9z M405.4,56L362,208h-74v-18.6l35-14c3-1.2,5-4.2,5-7.4V96c0-3.3-2-6.2-5-7.4l-35-14V56H405.4z M288,91.8l24,9.6v61.2
	l-24,9.6V91.8z M56,16h176v88H56V16z M24,16h16v96c0,4.4,3.6,8,8,8h192c4.4,0,8-3.6,8-8V16h16c4.4,0,8,3.6,8,8v360H16V24
	C16,19.6,19.6,16,24,16z M272,416H16v-16h256V416z M16,464v-32h256v32H16z M288,320h40c4.4,0,8,3.6,8,8v56h-48V320z M440,408
	c0,30.9-25.1,56-56,56s-56-25.1-56-56v-8h16c4.4,0,8-3.6,8-8v-64c0-13.3-10.7-24-24-24h-40v-80h80c3.6,0,6.7-2.4,7.7-5.8L384,189
	l32,16v115c0,4.4,3.6,8,8,8v24c0,4.4,3.6,8,8,8h8V408z M456,344h-16v-16h16V344z"/>
<path class="st0" d="M48,256h8v56c0,13.3,10.7,24,24,24h64.8c3.8,18.6,20.2,32,39.2,32h32c4.4,0,8-3.6,8-8v-8h24v-16h-24v-16h24v-16
	h-24v-8c0-4.4-3.6-8-8-8h-32c-19,0-35.4,13.4-39.2,32H80c-4.4,0-8-3.6-8-8v-56h9.5c3.3,9.6,12.4,16,22.5,16s19.2-6.4,22.5-16h42.9
	c3.3,9.6,12.4,16,22.5,16s19.2-6.4,22.5-16H240c4.4,0,8-3.6,8-8v-48c0-3.7-2.5-6.9-6.1-7.8l-27.7-6.9l-14.6-43.8
	c-1.1-3.3-4.1-5.5-7.6-5.5H88c-3.4,0-6.5,2.2-7.6,5.5L66.2,184H48c-4.4,0-8,3.6-8,8v56C40,252.4,43.6,256,48,256z M184,304h24v48
	h-24c-13.3,0-24-10.7-24-24S170.7,304,184,304z M104,256c-4.4,0-8-3.6-8-8s3.6-8,8-8s8,3.6,8,8S108.4,256,104,256z M192,256
	c-4.4,0-8-3.6-8-8s3.6-8,8-8s8,3.6,8,8S196.4,256,192,256z M56,200h16c3.4,0,6.5-2.2,7.6-5.5L93.8,152h92.5l14.2,42.5
	c0.9,2.6,3,4.6,5.6,5.2l25.9,6.5V240h-17.5c-3.3-9.6-12.4-16-22.5-16s-19.2,6.4-22.5,16h-42.9c-3.3-9.6-12.4-16-22.5-16
	s-19.2,6.4-22.5,16H56V200z"/>
<path class="st0" d="M96,48c-13.3,0-24,10.7-24,24s10.7,24,24,24s24-10.7,24-24S109.3,48,96,48z M96,80c-4.4,0-8-3.6-8-8s3.6-8,8-8
	s8,3.6,8,8S100.4,80,96,80z"/>
<path class="st0" d="M192,48c-13.3,0-24,10.7-24,24s10.7,24,24,24s24-10.7,24-24S205.3,48,192,48z M192,80c-4.4,0-8-3.6-8-8
	s3.6-8,8-8s8,3.6,8,8S196.4,80,192,80z"/>
<path class="st0" d="M80,24h32v16H80V24z"/>
<path class="st0" d="M176,24h32v16h-32V24z"/>
<path class="st0" d="M88,192h32v16H88V192z"/>
</svg>
