<?xml version="1.0"?>
<svg xmlns="http://www.w3.org/2000/svg" xmlns:xlink="http://www.w3.org/1999/xlink" version="1.1" id="Capa_1" x="0px" y="0px" viewBox="0 0 512.001 512.001" style="enable-background:new 0 0 512.001 512.001;" xml:space="preserve" width="512px" height="512px"><g><g>
	<g>
		<path d="M374.309,273.257c-1.092-3.403-4.417-6.205-8.68-7.311c-3.902-1.013-11.872-1.374-21.408,7.566    c-4.661,4.37-9.604,14.521-6.762,22.213c1.888,5.111,8.178,6.48,10.062,6.778c0.762,0.12,1.766,0.226,2.955,0.226    c4.659,0,12.146-1.61,18.913-10.195C373.203,287.695,376.498,280.09,374.309,273.257z M357.607,283.25    c-1.897,2.406-3.63,3.565-5.022,4.092c0.529-1.141,1.213-2.246,1.895-2.886c1.781-1.669,3.28-2.678,4.461-3.269    C358.59,281.857,358.148,282.563,357.607,283.25z" data-original="#000000" class="active-path" data-old_color="#000000" fill="#FFFFFF"/>
	</g>
</g><g>
	<g>
		<path d="M441.057,213.594c-1.336-2.308-3.796-3.731-6.462-3.741l-24.993-0.092c-0.009,0-0.018,0-0.027,0    c-2.639,0-5.084,1.388-6.438,3.653l-18.593,31.123c-4.377-3.021-9.606-4.643-15.524-4.764l-0.508-0.004    c-14.812-0.088-24.671,6.05-32.727,13.294c-2.838-7.273-9.616-13.31-20.061-13.868c-0.634-0.04-1.262-0.061-1.884-0.063    c-0.039,0-0.076,0-0.115,0c-5.573,0-10.692,1.481-15.704,4.594c-3.309-2.924-8.542-5.689-16.51-5.719    c-0.261,0.001-0.521,0.001-0.786,0.006c-2.036-0.02-5.324,0.005-9.002,1.616c-5.59,1.977-10.976,6.192-16.125,11.295    c-1.208-2.173-2.721-4.306-4.615-6.214c-4.154-4.19-8.972-4.208-10.554-4.214c-0.652,0-1.289,0.057-1.916,0.151    c0.728-0.451,1.44-0.916,2.121-1.407c3.375-2.434,13.646-9.837,9.748-22.532c-0.44-1.433-0.959-2.741-1.531-3.954    c10.94,2.827,22.865,4.995,34.884,4.995c17.451,0,50.824-11.358,50.824-29.167c0-8.833-6.005-14.54-15.3-14.54    c-2.222,0-3.603,0.251-4.611,0.435c-0.424,0.077-0.704,0.128-1.038,0.159c-13.976,1.307-28.014,1.443-41.723,0.403    c-4.137-0.313-7.732,2.781-8.045,6.912c-0.313,4.13,2.782,7.732,6.912,8.045c14.547,1.102,29.437,0.958,44.25-0.425    c0.984-0.092,1.73-0.228,2.33-0.337c0.692-0.126,1.045-0.19,1.882-0.192c-0.997,1.452-4.166,4.63-11.806,8.062    c-7.754,3.482-16.826,5.646-23.676,5.646c-19.589,0-39.987-6.817-54.881-11.795c-6.018-2.011-11.214-3.747-15.147-4.633    c-14.357-3.356-28.158-6.369-39.204-6.369c-29.274,0-42.875,9.727-48.376,15.524c-5.161,5.439-7.707,11.791-7.355,18.455    c0.451,6.978,5.767,11.851,12.929,11.851c1.077,0,2.194-0.106,3.32-0.317c4.832-0.859,11.002-3.886,15.924-7.812    c-4.677,7.193-12.983,15.112-24.314,15.112c-3.655,0-7.135-1.495-9.798-4.209c-3.132-3.192-5.025-8.002-4.938-12.618    c0.09-8.898,5.099-17.08,14.104-23.037c10.333-6.836,31.833-21.063,80.831-14.25c3.216,0.447,7.789,1.531,13.084,2.787    c5.453,1.293,11.633,2.758,18.864,4.174c4.067,0.79,8.005-1.854,8.801-5.92c0.795-4.064-1.854-8.005-5.919-8.801    c-6.941-1.358-12.968-2.788-18.285-4.049c-5.899-1.398-10.559-2.504-14.48-3.049c-54.61-7.583-79.304,8.747-91.172,16.598    c-13.288,8.791-20.684,21.361-20.825,35.329c-0.161,8.562,3.289,17.287,9.23,23.343c0.014,0.014,0.028,0.027,0.042,0.041    c-10.68,2.877-19.812,8.698-26.456,16.9c-6.36,7.852-9.923,17.563-9.776,26.672c0.492,25.125,19.413,43.36,44.989,43.36    c15.558,0,29.152-3.407,44.595-16.478c1.16,2.965,3.095,5.777,5.641,8.058l0.206,0.184c0.252,0.225,0.519,0.432,0.798,0.62    l0.231,0.156c1.973,1.328,4.294,2.034,6.707,2.042c0.016,0,0.031,0,0.047,0c3.499,0,6.316-1.473,7.964-2.334l0.458-0.237    c0.084-0.043,0.168-0.088,0.251-0.135l0.133-0.076c0.297-0.169,0.59-0.339,0.88-0.508c6.25,7.018,15.654,11.169,26.102,11.207    c0.055,0,0.107,0,0.162,0c13.526-0.001,23.614-6.374,31.339-13.691l-0.887,1.521c-1.349,2.315-1.36,5.175-0.029,7.501    c1.331,2.325,3.802,3.765,6.481,3.774l26.46,0.098c0.009,0,0.019,0,0.028,0c2.759,0,5.296-1.515,6.604-3.946l1.137-2.113    c5.726-10.64,8.268-15.315,11.275-20.78c4.087,2.53,8.976,3.911,14.512,4.063c1.111,0.035,2.175,0.058,3.203,0.062    c1.106,0.006,2.333-0.009,3.651-0.071c0.466,1.873,1.089,3.665,1.862,5.34c4.913,11.156,13.958,17.207,26.165,17.499    c0.05,0.001,0.101,0.002,0.151,0.002c7.323,0.021,15.449-1.554,22.656-4.335c3.301,2.835,8.226,5.048,15.564,5.075h0.104    c0.002,0,0.004,0,0.006,0c14.474-0.001,27.801-6.648,38.536-19.227c6.818-7.988,12.594-18.816,12.611-23.644    c0.016-4.26-1.976-10.002-11.553-13.172c-2.42-0.8-4.727-0.864-6.842-0.469c9.243-16.292,20.161-35.506,28.951-50.962    C442.404,218.744,442.393,215.901,441.057,213.594z M144.735,202.691c-0.918,1.933-6.294,6-10.563,7.518    c0.617-1.777,1.786-3.303,2.834-4.408c1.442-1.52,4.351-3.979,9.531-6.172C145.822,200.551,145.213,201.577,144.735,202.691z     M220.604,204.018c-0.106,0.068-0.216,0.129-0.321,0.199c-0.062-0.131-0.139-0.246-0.203-0.373    C220.251,203.9,220.431,203.96,220.604,204.018z M174.501,194.952c6.259,0,14.025,1.244,22.484,3    c-4.971,3.335-10.991,10.382-20.518,24.623c-4.152,0.56-8.359,1.279-12.388,2.282c3.383-5.478,5.394-10.801,5.98-14.489    c0.599-3.166,0.206-7.724-2.666-11.319c-1.202-1.506-2.718-2.674-4.461-3.465C166.368,195.184,170.209,194.952,174.501,194.952z     M114.757,265.716c0.136-0.052,0.271-0.107,0.404-0.167l0.111-0.049c8.878-3.944,9.568-11.19,9.568-13.317    c0-1.536-0.271-3.073-0.779-4.538c0.85,0.076,1.705,0.121,2.568,0.121c4.89,0,9.375-0.877,13.46-2.367    c-0.001,0.057-0.007,0.113-0.007,0.17v0.521c0,0.614,0.076,1.227,0.225,1.822l0.126,0.505c1.34,5.352,5.294,9.22,10.243,10.296    c-15.124,19.433-24.727,27.654-39.78,24.578l-0.004-0.001c-0.049-0.012-0.099-0.024-0.148-0.035    c-1.686-0.39-3.341-3.37-3.341-6.018C107.403,273.08,112.609,266.955,114.757,265.716z M114.923,311.037    c-17.604,0-29.656-11.515-29.991-28.628c-0.091-5.62,2.254-11.803,6.434-16.963c3.01-3.715,6.784-6.743,11.142-8.971    c-5.096,4.9-10.105,12.702-10.105,20.762c0,8.304,5.215,18.331,14.883,20.613l0.1,0.025c0.101,0.025,0.202,0.049,0.304,0.069    c3.282,0.685,6.385,1.012,9.347,1.012c22.581-0.002,36.737-19.047,55.49-44.282c1.174-1.58,2.373-3.193,3.6-4.838    c1.846-2.475,1.987-5.828,0.356-8.449c-0.893-1.434-2.215-2.487-3.728-3.057c3.703-0.678,7.032-1.071,8.943-1.297    c2.198-0.26,4.169-1.478,5.385-3.326c13.533-20.574,17.711-23.198,18.613-23.501c0.057-0.007,0.113-0.005,0.134-0.008    c0.01,0.002,0.069,0.014,0.288,0.087l0.346,0.115c0.09,0.045,0.208,0.133,0.238,0.176c0.01,0.022,0.723,2.658-4.487,9.577    c-1.823,2.421-2.01,5.7-0.474,8.313c1.536,2.613,4.492,4.046,7.494,3.628c0.293-0.04,0.657-0.081,1.065-0.129    c5.153-0.599,9.643-1.357,12.409-4.598c0.858-1.006,1.436-2.221,1.673-3.521c0.925-5.064,4.062-7.87,6.681-8.024    c2.862-0.175,4.35,3.241,4.979,5.29c0.347,1.131,0.741,2.412-4.182,5.961c-6.857,4.945-19.355,7.348-27.625,8.937    c-1.852,0.355-3.536,0.681-4.98,0.992c-1.99,0.43-3.721,1.649-4.793,3.381C157.232,300.465,139.151,311.037,114.923,311.037z     M378.963,300.492c-0.953,2.596-0.4,5.504,1.438,7.569c1.838,2.066,4.664,2.954,7.351,2.308c5.563-1.333,9.913-5.903,20.42-16.945    c1.527-1.604,3.186-3.348,4.995-5.234c0.155-0.162,0.303-0.33,0.442-0.505c0.061-0.076,0.625-0.593,1.042-0.822    c0.021,0.007,0.041,0.015,0.061,0.021c-3.367,7.397-15.255,26.649-35.332,26.649h-0.078c-5.377-0.02-6.299-1.779-6.794-2.724    c-1.914-3.652-6.414-5.074-10.078-3.186c-4.64,2.391-12.956,5.169-21.181,5.169c-0.021,0-0.041,0-0.061,0    c-6.285-0.17-10.216-2.822-12.742-8.593c-0.022-0.053-0.046-0.104-0.07-0.155c-0.973-2.092-1.51-4.763-1.514-7.521    c-0.003-2.301-1.062-4.474-2.873-5.894c-1.812-1.419-4.174-1.93-6.409-1.382c-2.273,0.557-4.766,0.796-8.297,0.775    c-0.89-0.004-1.815-0.022-2.815-0.055c-6.427-0.176-8.954-2.908-10.438-5.27c-1.413-2.249-3.904-3.587-6.563-3.507    c-2.654,0.075-5.071,1.549-6.354,3.874l-1.213,2.198c-4.93,8.93-6.912,12.519-13.878,25.458l-8.967-0.033l17.428-29.915    c0.352-0.604,0.617-1.253,0.789-1.93c1.937-7.63-3.14-10.669-4.177-11.2c-5.534-2.837-11.311,1.12-16.728,5.817    c-4.282,3.712-9.288,8.877-13.733,14.17c-0.867,1.032-1.773,2.148-2.725,3.32c-7.447,9.174-16.708,20.585-30.816,20.584    c-0.032,0-0.066,0-0.098,0c-7.905-0.029-14.391-3.673-17.348-9.747c-0.972-1.997-2.781-3.461-4.937-3.996    c-0.597-0.148-1.203-0.221-1.806-0.221c-1.576,0-3.129,0.497-4.427,1.446c-0.772,0.564-1.632,1.149-2.569,1.75    c7.196-5.511,9.418-10.14,9.844-11.162c1.386-2.839,3.55-6.943,5.463-10.569l1.714-3.254c0.018-0.033,0.035-0.067,0.052-0.102    c7.474-14.729,17.764-22.412,30.586-22.841c0.642,0.008,0.91,0.162,0.896,0.108c0.01,0.011,0.058,0.06,0.145,0.188    c0.275,0.407,0.59,0.787,0.94,1.133c2.678,2.648,6.089,2.87,10.135,0.659c0.594-0.325,2.08-1.137,2.893-1.4    c2.188,2.364,3.897,6.412,4.598,10.925c0.45,2.894,2.542,5.261,5.358,6.063c2.815,0.8,5.841-0.109,7.747-2.333    c3.368-3.929,12.313-14.364,18.589-16.462c0.271-0.091,0.537-0.197,0.796-0.318c0.81-0.379,1.701-0.397,3.095-0.39    c0.062,0.005,0.121,0,0.181-0.002c0.171-0.004,0.339-0.006,0.51-0.004c5.049,0.019,6.672,1.914,7.208,2.539    c0.415,0.484,0.762,1.048,1.032,1.675c0.959,2.229,2.939,3.856,5.312,4.366c2.374,0.514,4.847-0.158,6.638-1.797    c4.335-3.964,7.954-5.658,12.086-5.658c0.344-0.001,0.705,0.012,1.132,0.038c6.983,0.374,7.437,5.671,7.447,6.898    c-0.166,3.181-2.568,7.878-7.19,8.001l-0.039,0.001c-3.792-0.032-5.348-1.55-6.279-2.871c-1.507-2.138-4.023-3.332-6.629-3.161    c-2.61,0.174-4.94,1.695-6.15,4.015c-0.856,1.641-1.44,3.563-1.835,6.044l-0.008,0.046c-0.537,3.075,0.888,6.162,3.577,7.748    c10.362,6.115,19.716,7.26,27.803,3.401c6.622-3.158,10.279-8.786,12.243-11.811c0.238-0.365,0.438-0.687,0.616-0.936    c9.033-9.385,16.233-16.777,29.868-16.777c0.046,0,0.094,0.001,0.141,0.001l0.382,0.002c4.915,0.102,8.267,1.957,10.866,6.019    c1.401,2.189,3.828,3.53,6.433,3.456c2.598-0.04,4.99-1.422,6.323-3.652l21.397-35.817l7.883,0.029    C379.501,299.028,379.227,299.773,378.963,300.492z" data-original="#000000" class="active-path" data-old_color="#000000" fill="#FFFFFF"/>
	</g>
</g><g>
	<g>
		<path d="M233.702,268.463c-4.507-3.798-11.331-4.737-17.807-2.455c-8.478,2.99-14.682,10.641-16.595,20.465    c-1.556,7.981,2.471,15.016,9.575,16.726c0.575,0.138,1.164,0.208,1.755,0.208c13.08,0,21.335-9.848,24.699-19.064    C236.841,280.197,238.641,272.623,233.702,268.463z M217.406,285.397c-0.929,0.938-1.903,1.654-2.936,2.151    c1.484-4.793,4.542-6.604,5.893-7.189c0.168-0.073,0.333-0.138,0.493-0.194C220.122,281.862,218.993,283.792,217.406,285.397z" data-original="#000000" class="active-path" data-old_color="#000000" fill="#FFFFFF"/>
	</g>
</g><g>
	<g>
		<path d="M464.647,181.562c-3.399-2.364-8.073-1.527-10.44,1.873c-2.366,3.399-1.527,8.074,1.873,10.439    c18.667,12.989,40.92,34.29,40.92,62.003c0,29.06-24.364,56.832-68.604,78.2c-45.958,22.198-107.213,34.424-172.482,34.424    c-38.744,0-75.755-4.232-110.005-12.581c-4.025-0.985-8.082,1.487-9.063,5.511s1.486,8.082,5.511,9.063    c35.412,8.631,73.617,13.007,113.557,13.007c67.482,0,131.055-12.756,179.007-35.917c49.706-24.009,77.08-56.577,77.08-91.707    C512,228.814,495.625,203.116,464.647,181.562z" data-original="#000000" class="active-path" data-old_color="#000000" fill="#FFFFFF"/>
	</g>
</g><g>
	<g>
		<path d="M434.588,164.227c-47.936-23.038-111.39-35.726-178.674-35.726c-67.51,0-131.075,12.745-178.985,35.886    C27.321,188.349,0,220.841,0,255.877c0,21.868,10.896,43.315,31.511,62.023c19.167,17.394,46.809,32.496,79.938,43.673    c0.795,0.269,1.603,0.396,2.398,0.396c3.129,0,6.05-1.975,7.105-5.104c1.325-3.926-0.784-8.18-4.708-9.505    C52.848,325.972,15,291.772,15,255.877c0-28.966,24.311-56.661,68.453-77.983c45.917-22.179,107.164-34.393,172.46-34.393    c65.08,0,126.228,12.162,172.177,34.246c3.734,1.798,8.215,0.222,10.009-3.511C439.893,170.503,438.321,166.021,434.588,164.227z" data-original="#000000" class="active-path" data-old_color="#000000" fill="#FFFFFF"/>
	</g>
</g></g> </svg>
