<?xml version="1.0" encoding="utf-8"?>
<!-- Generator: Adobe Illustrator 21.1.0, SVG Export Plug-In . SVG Version: 6.00 Build 0)  -->
<svg version="1.1" id="Layer_1" xmlns="http://www.w3.org/2000/svg" xmlns:xlink="http://www.w3.org/1999/xlink" x="0px" y="0px"
	 viewBox="0 0 512 512" style="enable-background:new 0 0 512 512;" xml:space="preserve">
<style type="text/css">
	.st0{fill:#DC2E2E;}
</style>
<g id="Semiconductor-transistor-chip-electronics-4">
	<path class="st0" d="M472,216c13.3,0,24-10.7,24-24s-10.7-24-24-24h-24v-16h24c13.3,0,24-10.7,24-24s-10.7-24-24-24h-24V88
		c0-2.1-0.8-4.2-2.3-5.7l-16-16c-1.5-1.5-3.6-2.3-5.7-2.3h-16V40c0-13.3-10.7-24-24-24s-24,10.7-24,24v24h-16V40
		c0-13.3-10.7-24-24-24s-24,10.7-24,24v24h-16V40c0-13.3-10.7-24-24-24c-13.3,0-24,10.7-24,24v24h-16V40c0-13.3-10.7-24-24-24
		s-24,10.7-24,24v24h-16V40c0-13.3-10.7-24-24-24s-24,10.7-24,24v24H88c-2.1,0-4.2,0.8-5.7,2.3l-16,16C64.8,83.8,64,85.9,64,88v16
		H40c-13.3,0-24,10.7-24,24s10.7,24,24,24h24v16H40c-13.3,0-24,10.7-24,24s10.7,24,24,24h24v16H40c-13.3,0-24,10.7-24,24
		c0,13.3,10.7,24,24,24h24v16H40c-13.3,0-24,10.7-24,24s10.7,24,24,24h24v16H40c-13.3,0-24,10.7-24,24s10.7,24,24,24h24v16
		c0,2.1,0.8,4.2,2.3,5.7l16,16c1.5,1.5,3.6,2.3,5.7,2.3h16v24c0,13.3,10.7,24,24,24s24-10.7,24-24v-24h16v24c0,13.3,10.7,24,24,24
		s24-10.7,24-24v-24h16v24c0,13.3,10.7,24,24,24c13.3,0,24-10.7,24-24v-24h16v24c0,13.3,10.7,24,24,24s24-10.7,24-24v-24h16v24
		c0,13.3,10.7,24,24,24s24-10.7,24-24v-24h16c2.1,0,4.2-0.8,5.7-2.3l16-16c1.5-1.5,2.3-3.6,2.3-5.7v-16h24c13.3,0,24-10.7,24-24
		s-10.7-24-24-24h-24v-16h24c13.3,0,24-10.7,24-24s-10.7-24-24-24h-24v-16h24c13.3,0,24-10.7,24-24c0-13.3-10.7-24-24-24h-24v-16
		H472z M448,120h24c4.4,0,8,3.6,8,8c0,4.4-3.6,8-8,8h-24V120z M448,184h24c4.4,0,8,3.6,8,8s-3.6,8-8,8h-24V184z M64,392H40
		c-4.4,0-8-3.6-8-8s3.6-8,8-8h24V392z M64,328H40c-4.4,0-8-3.6-8-8s3.6-8,8-8h24V328z M64,264H40c-4.4,0-8-3.6-8-8s3.6-8,8-8h24V264
		z M64,200H40c-4.4,0-8-3.6-8-8s3.6-8,8-8h24V200z M64,136H40c-4.4,0-8-3.6-8-8c0-4.4,3.6-8,8-8h24V136z M376,40c0-4.4,3.6-8,8-8
		s8,3.6,8,8v24h-16V40z M312,40c0-4.4,3.6-8,8-8s8,3.6,8,8v24h-16V40z M248,40c0-4.4,3.6-8,8-8s8,3.6,8,8v24h-16V40z M184,40
		c0-4.4,3.6-8,8-8s8,3.6,8,8v24h-16V40z M120,40c0-4.4,3.6-8,8-8c4.4,0,8,3.6,8,8v24h-16V40z M136,472c0,4.4-3.6,8-8,8
		c-4.4,0-8-3.6-8-8v-24h16V472z M200,472c0,4.4-3.6,8-8,8s-8-3.6-8-8v-24h16V472z M264,472c0,4.4-3.6,8-8,8s-8-3.6-8-8v-24h16V472z
		 M328,472c0,4.4-3.6,8-8,8s-8-3.6-8-8v-24h16V472z M392,472c0,4.4-3.6,8-8,8s-8-3.6-8-8v-24h16V472z M432,420.7L420.7,432H91.3
		L80,420.7V91.3L91.3,80h329.4L432,91.3V420.7z M472,376c4.4,0,8,3.6,8,8s-3.6,8-8,8h-24v-16H472z M472,312c4.4,0,8,3.6,8,8
		s-3.6,8-8,8h-24v-16H472z M472,248c4.4,0,8,3.6,8,8s-3.6,8-8,8h-24v-16H472z"/>
	<path class="st0" d="M408,96H104c-4.4,0-8,3.6-8,8v304c0,4.4,3.6,8,8,8h304c4.4,0,8-3.6,8-8V104C416,99.6,412.4,96,408,96z
		 M400,400H112V112h288V400z"/>
	<circle class="st0" cx="144" cy="144" r="16"/>
</g>
</svg>
