<?xml version="1.0"?>
<svg xmlns="http://www.w3.org/2000/svg" xmlns:xlink="http://www.w3.org/1999/xlink" version="1.1" id="Capa_1" x="0px" y="0px" viewBox="0 0 512 512" style="enable-background:new 0 0 512 512;" xml:space="preserve" width="512px" height="512px"><g><g>
	<g>
		<path d="M360.042,376.892c-0.915-4.04-4.93-6.571-8.97-5.659C320.977,378.046,288.99,381.5,256,381.5    c-65.164,0-126.311-13.519-172.177-38.067C39.442,319.679,15,288.628,15,256c0-20.375,9.338-39.907,27.756-58.053    c2.951-2.907,2.986-7.656,0.079-10.607c-2.907-2.951-7.656-2.986-10.606-0.079C11.145,208.035,0,231.804,0,256    c0,38.423,27.255,74.17,76.745,100.658C124.75,382.35,188.41,396.5,256,396.5c34.103,0,67.204-3.579,98.383-10.637    C358.423,384.948,360.957,380.932,360.042,376.892z" data-original="#000000" class="active-path" data-old_color="#000000" fill="#FFFFFF"/>
	</g>
</g><g>
	<g>
		<path d="M435.255,155.342C387.25,129.65,323.59,115.5,256,115.5c-75.798,0-147.15,18.063-195.76,49.558    c-3.476,2.252-4.468,6.897-2.216,10.373c2.253,3.477,6.896,4.469,10.373,2.216C114.641,147.684,183.02,130.5,256,130.5    c65.164,0,126.311,13.519,172.177,38.067C472.558,192.321,497,223.372,497,256c0,43.571-45.044,84.802-117.555,107.601    c-3.952,1.243-6.147,5.453-4.905,9.404c1.007,3.203,3.964,5.253,7.153,5.253c0.745,0,1.503-0.112,2.251-0.347    c37.742-11.867,69.476-28.923,91.771-49.323C499.453,306.868,512,281.767,512,256C512,217.577,484.745,181.83,435.255,155.342z" data-original="#000000" class="active-path" data-old_color="#000000" fill="#FFFFFF"/>
	</g>
</g><g>
	<g>
		<path d="M421.088,181.758c-3.727-1.994-7.635-3.948-11.61-5.805c-5.646-2.641-11.578-5.153-17.631-7.466    c-39.42-15.06-86.396-23.021-135.847-23.021c-7.506,0-15.109,0.191-22.593,0.569c-7.658,0.381-15.194,0.953-22.388,1.698    c-45.675,4.658-87.207,16.424-120.108,34.025C52.201,202.477,30,229.538,30,256.002c0,26.459,22.201,53.516,60.92,74.239    c2.572,1.372,5.234,2.733,7.921,4.049c5.777,2.819,11.887,5.506,18.156,7.985C157.033,358.142,205.1,366.529,256,366.529    c5.356,0,10.661-0.096,15.739-0.284c2.029-0.067,4.065-0.152,6.101-0.249c5.557-0.265,11.124-0.636,16.617-1.113    c48.326-4.184,92.115-16.164,126.632-34.646C459.799,309.518,482,282.461,482,256.002    C482,229.538,459.799,202.477,421.088,181.758z M239.042,160.802c5.645-0.22,11.329-0.335,16.958-0.335    c42.928,0,83.792,6.205,119.064,17.975c-23.609,21.115-63.269,48.662-109.484,48.662c-14.549,0-24.512-3.796-29.611-11.284    C228.775,205.257,229.891,185.824,239.042,160.802z M97.989,317.012C64.314,298.987,45,276.751,45,256.002    c0-20.754,19.314-42.994,52.988-61.018c27.002-14.446,60.32-24.753,97.169-30.16c-23.734,32.133-60.404,85.547-96.2,152.693    C98.637,317.348,98.306,317.181,97.989,317.012z M266.057,351.405c-3.305,0.079-6.666,0.122-10.056,0.122    c-44.757,0.001-87.099-6.704-123.277-19.416c22.016-23.587,65.271-62.495,110.986-62.495c12.02,0,20.276,3.402,25.241,10.401    C277.94,292.689,276.848,318.547,266.057,351.405z M414.01,317.012c-28.946,15.499-64.97,26.184-104.939,31.226    c15.302-22.683,37.846-56.436,59.358-89.891c2.241-3.484,1.232-8.125-2.251-10.365c-3.485-2.242-8.125-1.233-10.365,2.251    c-25.026,38.918-51.47,78.267-66.19,99.988c-0.24,0.019-0.479,0.039-0.719,0.058c-2.261,0.173-4.529,0.332-6.802,0.468    c-0.03,0.002-0.059,0.003-0.089,0.005c13.742-44.834,7.37-67.856-0.828-79.413c-7.872-11.096-20.48-16.722-37.475-16.722    c-24.97,0-51.357,9.669-78.429,28.739c-19.865,13.993-36.378,30.456-47.62,42.99c-0.335-0.141-0.664-0.286-0.998-0.428    c-1.222-0.519-2.438-1.043-3.639-1.576c-0.192-0.085-0.38-0.172-0.571-0.258c39.925-74.809,80.911-132.307,103.304-161.737    c0.271-0.026,0.539-0.053,0.811-0.078c1.838-0.17,3.694-0.33,5.568-0.477c0.24-0.019,0.475-0.041,0.716-0.059    c-6.842,20.952-10.67,45.804,0.72,62.531c8.063,11.839,22.196,17.841,42.01,17.841c55.163,0,101-34.786,125.334-57.868    c0.292,0.118,0.579,0.241,0.87,0.359c1.179,0.481,2.354,0.965,3.517,1.459c0.102,0.043,0.201,0.088,0.303,0.131    c-5.991,10.155-13.049,21.731-21.052,34.529c-2.196,3.512-1.13,8.139,2.382,10.336c3.512,2.196,8.139,1.13,10.335-2.382    c8.413-13.452,15.784-25.561,22.005-36.141c1.606,0.809,3.191,1.628,4.737,2.455C447.686,213.008,467,235.248,467,256.002    C467,276.75,447.686,298.987,414.01,317.012z" data-original="#000000" class="active-path" data-old_color="#000000" fill="#FFFFFF"/>
	</g>
</g></g> </svg>
