<?xml version="1.0"?>
<svg xmlns="http://www.w3.org/2000/svg" xmlns:xlink="http://www.w3.org/1999/xlink" version="1.1" id="Capa_1" x="0px" y="0px" viewBox="0 0 512 512" style="enable-background:new 0 0 512 512;" xml:space="preserve" width="512px" height="512px"><g><g>
	<g>
		<path d="M467.505,252.268L324.934,3.768c-0.009-0.016-0.021-0.029-0.03-0.045c-0.013-0.022-0.022-0.047-0.035-0.069    c-0.092-0.154-0.201-0.294-0.303-0.439C324.493,3.11,324.427,3,324.35,2.901c-0.125-0.16-0.263-0.307-0.399-0.455    c-0.084-0.092-0.161-0.189-0.249-0.277c-0.145-0.143-0.302-0.271-0.457-0.401c-0.092-0.078-0.179-0.162-0.275-0.235    c-0.164-0.125-0.339-0.233-0.513-0.343c-0.098-0.063-0.191-0.134-0.292-0.192c-0.183-0.105-0.375-0.191-0.566-0.28    c-0.101-0.047-0.198-0.104-0.302-0.147c-0.203-0.084-0.414-0.148-0.624-0.214c-0.099-0.031-0.194-0.072-0.294-0.099    c-0.234-0.063-0.474-0.104-0.714-0.144c-0.082-0.014-0.162-0.038-0.245-0.049C319.093,0.023,318.764,0,318.43,0h-0.001H193.567    h-0.001c-0.002,0-0.003,0-0.005,0c-0.306,0-0.606,0.024-0.903,0.06c-0.083,0.01-0.164,0.025-0.246,0.038    c-0.227,0.035-0.451,0.08-0.67,0.135c-0.077,0.019-0.153,0.037-0.229,0.059c-0.278,0.079-0.552,0.17-0.816,0.279    c-0.007,0.003-0.014,0.005-0.021,0.008c-0.275,0.115-0.54,0.249-0.797,0.395c-0.069,0.039-0.135,0.082-0.203,0.123    c-0.186,0.113-0.366,0.233-0.54,0.362c-0.075,0.055-0.149,0.109-0.222,0.166c-0.206,0.163-0.405,0.336-0.592,0.519    c-0.037,0.036-0.073,0.072-0.109,0.109c-0.185,0.189-0.358,0.388-0.522,0.595c-0.058,0.074-0.113,0.15-0.169,0.226    c-0.133,0.181-0.257,0.368-0.373,0.56c-0.028,0.046-0.062,0.086-0.088,0.133l-14.183,24.721c-2.062,3.593-0.82,8.177,2.773,10.238    c3.592,2.061,8.176,0.82,10.238-2.773L197.91,15h107.968L178.109,252.446c-0.146,0.271-0.268,0.549-0.378,0.829    c-0.01,0.027-0.019,0.054-0.029,0.08c-0.096,0.255-0.177,0.512-0.245,0.772c-0.01,0.038-0.019,0.076-0.028,0.114    c-0.065,0.268-0.116,0.538-0.15,0.808c-0.002,0.018-0.005,0.036-0.008,0.053c-0.072,0.6-0.072,1.202,0,1.793    c0.003,0.021,0.007,0.042,0.009,0.063c0.034,0.264,0.084,0.526,0.146,0.784c0.012,0.049,0.024,0.097,0.036,0.146    c0.068,0.26,0.148,0.516,0.243,0.768c0.008,0.02,0.014,0.04,0.021,0.06c0.115,0.295,0.248,0.584,0.399,0.863l17.009,31.611    c1.963,3.648,6.512,5.013,10.158,3.051c3.648-1.963,5.014-6.511,3.051-10.158L193.234,256l62.764-116.642L318.762,256    l-62.764,116.642l-32.183-59.81c-1.962-3.648-6.51-5.013-10.158-3.051c-3.648,1.963-5.014,6.511-3.051,10.158l36.876,68.531    l-54.125,100.59L59.643,256L168.66,65.982c2.062-3.593,0.82-8.177-2.773-10.238c-3.592-2.062-8.176-0.82-10.238,2.773    L44.491,252.268c-0.022,0.039-0.037,0.081-0.059,0.12c-0.114,0.208-0.218,0.42-0.312,0.638c-0.03,0.07-0.062,0.139-0.09,0.209    c-0.108,0.272-0.203,0.548-0.278,0.83c-0.01,0.037-0.015,0.074-0.024,0.111c-0.062,0.248-0.111,0.5-0.148,0.753    c-0.012,0.082-0.021,0.164-0.03,0.246c-0.026,0.231-0.041,0.462-0.045,0.695c-0.001,0.063-0.005,0.125-0.005,0.188    c0.002,0.3,0.02,0.601,0.058,0.901c0.001,0.01,0.004,0.02,0.005,0.031c0.037,0.28,0.094,0.558,0.164,0.835    c0.018,0.072,0.039,0.143,0.059,0.214c0.063,0.221,0.137,0.441,0.221,0.658c0.028,0.073,0.055,0.147,0.085,0.22    c0.117,0.276,0.246,0.549,0.399,0.815l142.57,248.5c1.338,2.333,3.821,3.768,6.505,3.768c0.001,0,0.001,0,0.002,0h124.861    c2.687,0,5.169-1.437,6.505-3.768l14.018-24.434c2.062-3.593,0.82-8.177-2.773-10.238c-3.592-2.062-8.176-0.82-10.238,2.773    L314.085,497H206.118l56.485-104.976l71.281-132.47c1.194-2.219,1.194-4.889,0-7.107l-69.37-128.919L318.64,22.939L452.353,256    L342.731,447.07c-2.061,3.593-0.82,8.177,2.773,10.238c1.177,0.675,2.459,0.996,3.726,0.996c2.599,0,5.126-1.353,6.512-3.769    l111.764-194.803C468.832,257.421,468.832,254.579,467.505,252.268z" data-original="#000000" class="active-path" data-old_color="#000000" fill="#FFFFFF"/>
	</g>
</g></g> </svg>
