<?xml version="1.0" encoding="utf-8"?>
<!-- Generator: Adobe Illustrator 21.1.0, SVG Export Plug-In . SVG Version: 6.00 Build 0)  -->
<svg version="1.1" id="Layer_1" xmlns="http://www.w3.org/2000/svg" xmlns:xlink="http://www.w3.org/1999/xlink" x="0px" y="0px"
	 viewBox="0 0 512 512" style="enable-background:new 0 0 512 512;" xml:space="preserve">
<style type="text/css">
	.st0{fill:#DC2E2E;}
</style>
<g id="speedometer">
	<path class="st0" d="M256,16C123.5,16,16,123.5,16,256s107.5,240,240,240s240-107.5,240-240C495.8,123.5,388.5,16.2,256,16z
		 M256,480C132.3,480,32,379.7,32,256S132.3,32,256,32s224,100.3,224,224C479.9,379.7,379.7,479.9,256,480z"/>
	<path class="st0" d="M312,376H200c-4.4,0-8,3.6-8,8v64c0,4.4,3.6,8,8,8h112c4.4,0,8-3.6,8-8v-64C320,379.6,316.4,376,312,376z
		 M304,440h-96v-48h96V440z"/>
	<path class="st0" d="M256,56C145.6,56.1,56.1,145.6,56,256c0,4.4,3.6,8,8,8h64c4.4,0,8-3.6,8-8c0-66.2,53.7-120,119.9-120
		c27.7,0,54.6,9.6,76,27.1L280,205.5c-28.1-13.4-61.7-1.6-75.1,26.5s-1.6,61.7,26.5,75.1c28.1,13.4,61.7,1.6,75.1-26.5
		c7.4-15.4,7.4-33.3,0-48.6l42.4-51.9c17.6,21.4,27.2,48.2,27.1,75.9c0,4.4,3.6,8,8,8c0,0,0,0,0,0h64c4.4,0,8-3.6,8-8
		C455.9,145.6,366.4,56.1,256,56z M120.2,248H72.2c1.2-26.9,8.2-53.1,20.6-77l41.8,24.1C126.2,211.6,121.3,229.6,120.2,248
		L120.2,248z M142.6,181.3l-41.7-24.1c14.4-22.6,33.7-41.9,56.3-56.3l24,41.6C165.8,152.7,152.7,165.9,142.6,181.3z M248,120.4
		c-18.4,1-36.4,5.8-52.9,14.1L171,92.8c23.8-12.4,50.1-19.5,77-20.6V120.4z M256,296c-22.1,0-40-17.9-40-40s17.9-40,40-40
		c3.3,0,6.5,0.4,9.7,1.2l-26.1,21.3c-0.2,0.2-0.4,0.4-0.6,0.6c-9.7,9-10.2,24.2-1.2,33.9s24.2,10.2,33.9,1.2
		c0.4-0.4,0.8-0.8,1.2-1.2c0.2-0.2,0.4-0.4,0.6-0.6l21.3-26.1c0.8,3.2,1.2,6.4,1.2,9.7C296,278.1,278.1,296,256,296z M261.4,261.9
		c-3.2,2.8-8,2.7-11.1-0.2c-1.5-1.5-2.3-3.6-2.3-5.7c0-2,0.7-3.9,2.1-5.4l61.6-50.2L261.4,261.9z M264,120.4V72.2
		c26.9,1.2,53.1,8.2,77,20.6l-24.1,41.7C300.4,126.2,282.4,121.4,264,120.4z M369.4,181.3c-3.1-4.8-6.6-9.4-10.3-13.8l15-18.5
		c2.8-3.4,2.4-8.4-1-11.2c-2.9-2.5-7.2-2.5-10.2,0L344.4,153c-4.3-3.8-8.9-7.3-13.6-10.5l24-41.6c22.6,14.4,41.9,33.7,56.3,56.3
		L369.4,181.3z M391.8,248c-1.1-18.4-6-36.4-14.3-52.9l41.8-24.1c12.4,23.8,19.5,50.1,20.6,77L391.8,248z"/>
	<path class="st0" d="M352,312c-13.3,0-24,10.7-24,24s10.7,24,24,24s24-10.7,24-24S365.3,312,352,312z M352,344c-4.4,0-8-3.6-8-8
		s3.6-8,8-8s8,3.6,8,8S356.4,344,352,344z"/>
	<path class="st0" d="M416,312c-13.3,0-24,10.7-24,24s10.7,24,24,24s24-10.7,24-24S429.3,312,416,312z M416,344c-4.4,0-8-3.6-8-8
		s3.6-8,8-8s8,3.6,8,8S420.4,344,416,344z"/>
	<path class="st0" d="M160,312c-13.3,0-24,10.7-24,24s10.7,24,24,24s24-10.7,24-24S173.3,312,160,312z M160,344c-4.4,0-8-3.6-8-8
		s3.6-8,8-8s8,3.6,8,8S164.4,344,160,344z"/>
	<path class="st0" d="M96,312c-13.3,0-24,10.7-24,24s10.7,24,24,24s24-10.7,24-24S109.3,312,96,312z M96,344c-4.4,0-8-3.6-8-8
		s3.6-8,8-8s8,3.6,8,8S100.4,344,96,344z"/>
	<path class="st0" d="M200,328h16v16h-16V328z"/>
	<path class="st0" d="M232,328h40v16h-40V328z"/>
	<path class="st0" d="M288,328h16v16h-16V328z"/>
</g>
</svg>
