<?xml version="1.0"?>
<svg xmlns="http://www.w3.org/2000/svg" xmlns:xlink="http://www.w3.org/1999/xlink" version="1.1" id="Capa_1" x="0px" y="0px" viewBox="0 0 512 512" style="enable-background:new 0 0 512 512;" xml:space="preserve" width="512px" height="512px"><g><g>
	<g>
		<path d="M435.881,132.383C387.726,100.216,323.843,82.5,256,82.5c-47.097,0-93.113,8.698-133.074,25.153    c-3.83,1.577-5.656,5.96-4.079,9.791c1.577,3.831,5.959,5.658,9.791,4.08C166.804,105.807,210.845,97.5,256,97.5    c132.888,0,241,71.103,241,158.5S388.888,414.5,256,414.5S15,343.397,15,256c0-46.378,30.961-90.348,84.946-120.634    c3.613-2.027,4.898-6.598,2.872-10.21c-2.027-3.613-6.599-4.897-10.21-2.872C33.754,155.302,0,204.04,0,256    c0,46.927,27.032,90.828,76.115,123.617C124.269,411.784,188.154,429.5,256,429.5c67.843,0,131.726-17.716,179.881-49.883    C484.967,346.827,512,302.926,512,256C512,209.074,484.967,165.173,435.881,132.383z" data-original="#000000" class="active-path" data-old_color="#000000" fill="#FFFFFF"/>
	</g>
</g><g>
	<g>
		<path d="M385.191,148.971c-18.89-13.979-58.583-29.846-113.335-32.453c-3.748-0.17-7.053,2.443-7.732,6.134    c-0.68,3.691,1.475,7.317,5.042,8.485c22.657,7.419,42.188,33.551,52.246,69.903c0.918,3.319,3.931,5.502,7.223,5.502    c0.626,0,1.263-0.079,1.896-0.245c22.056-5.749,41.956-14.37,54.603-23.656c5.441-4.002,8.565-10.14,8.573-16.839    C393.714,159.111,390.609,152.976,385.191,148.971z M376.251,170.554c-4.841,3.555-18.172,12.107-42.528,19.292    c-7.34-22.903-18.426-41.897-31.831-55.141c26.78,4.231,55.804,12.579,74.38,26.326c2.122,1.568,2.437,3.652,2.436,4.754    C378.706,167.669,377.809,169.409,376.251,170.554z" data-original="#000000" class="active-path" data-old_color="#000000" fill="#FFFFFF"/>
	</g>
</g><g>
	<g>
		<path d="M247.877,122.653c-0.68-3.692-3.993-6.304-7.732-6.135c-54.607,2.591-94.323,18.393-113.284,32.317    c-5.438,3.994-8.565,10.124-8.578,16.817c-0.013,6.695,3.09,12.839,8.516,16.856c12.615,9.335,32.541,18.002,54.667,23.778    c0.635,0.166,1.272,0.245,1.899,0.245c3.292,0,6.305-2.183,7.224-5.502c10.057-36.348,29.587-62.476,52.245-69.892    C246.401,129.97,248.556,126.344,247.877,122.653z M178.278,189.834c-24.42-7.216-37.73-15.811-42.555-19.381    c-1.555-1.151-2.444-2.89-2.44-4.771c0.004-1.879,0.899-3.613,2.457-4.757c18.645-13.691,47.641-22.007,74.37-26.224    C196.705,147.942,185.618,166.936,178.278,189.834z" data-original="#000000" class="active-path" data-old_color="#000000" fill="#FFFFFF"/>
	</g>
</g><g>
	<g>
		<path d="M433.913,173.952c-1.858-1.67-4.425-2.305-6.85-1.694c-2.423,0.612-4.382,2.391-5.225,4.743    c-4.782,13.357-20.532,26.528-44.348,37.085c-3.787,1.679-5.496,6.109-3.817,9.896s6.108,5.496,9.896,3.817    c22.611-10.023,38.776-22.266,47.464-35.825C450.141,211.635,460.18,233.61,460.18,256c0,32.605-21.072,63.95-59.334,88.261    c-29.416,18.69-65.621,31.098-104.641,36.162c8.377-6.923,16.064-16.082,22.782-27.289c15.794-26.35,24.493-61.227,24.493-98.205    c0-4.546-0.132-9.074-0.393-13.529c3.593-0.893,7.131-1.843,10.574-2.838c3.979-1.151,6.272-5.309,5.122-9.289    c-1.151-3.979-5.309-6.273-9.289-5.121c-5.155,1.49-10.542,2.874-16.01,4.111c-3.662,0.829-6.146,4.237-5.815,7.977    c0.538,6.069,0.811,12.357,0.811,18.688c0,34.301-7.94,66.438-22.359,90.493C292.423,368.275,274.623,380.86,256,380.86    c-26.298,0-50.65-25.186-63.552-65.73c-1.256-3.947-5.474-6.128-9.421-4.873c-3.947,1.256-6.128,5.474-4.873,9.421    c8.495,26.693,21.788,47.641,37.749,60.759c-39.066-5.054-75.312-17.468-104.757-36.176C72.883,319.95,51.81,288.605,51.81,256    c0-22.409,10.046-44.392,29.169-64.053c13.535,20.919,45.153,38.821,87.923,49.455c-0.261,4.456-0.393,8.984-0.393,13.528    c0,11.383,0.834,22.708,2.479,33.661c0.616,4.097,4.437,6.917,8.531,6.303c4.096-0.616,6.918-4.435,6.303-8.531    c-1.535-10.217-2.313-20.792-2.313-31.432c0-6.328,0.273-12.615,0.811-18.688c0.332-3.74-2.153-7.148-5.815-7.977    c-46.984-10.633-80.839-30.276-88.354-51.265c-0.842-2.353-2.801-4.131-5.224-4.743c-2.422-0.61-4.991,0.022-6.85,1.693    C51.08,198.209,36.81,226.581,36.81,256c0,19.329,6.135,38.166,18.235,55.987c11.409,16.805,27.578,31.923,48.057,44.935    C144.794,383.412,199.095,398,256,398c56.901,0,111.198-14.588,152.89-41.079c20.479-13.011,36.647-28.129,48.056-44.934    c12.1-17.822,18.234-36.659,18.234-55.987C475.18,226.591,460.91,198.219,433.913,173.952z" data-original="#000000" class="active-path" data-old_color="#000000" fill="#FFFFFF"/>
	</g>
</g><g>
	<g>
		<path d="M299.526,203.617C290.07,171.9,272.578,150.59,256,150.59c-16.583,0-34.08,21.31-43.538,53.027    c-0.633,2.123-0.295,4.416,0.922,6.267c1.218,1.85,3.191,3.067,5.391,3.325c11.994,1.408,24.519,2.122,37.224,2.122    c12.699,0,25.22-0.714,37.214-2.122c2.2-0.258,4.173-1.475,5.391-3.325C299.821,208.033,300.159,205.74,299.526,203.617z     M256,200.33c-8.893,0-17.686-0.366-26.246-1.089c8.316-22.012,20.074-33.651,26.246-33.651c6.168,0,17.92,11.639,26.236,33.651    C273.677,199.965,264.888,200.33,256,200.33z" data-original="#000000" class="active-path" data-old_color="#000000" fill="#FFFFFF"/>
	</g>
</g><g>
	<g>
		<path d="M306.19,241.167c-0.141-2.041-1.111-3.935-2.684-5.243c-1.572-1.309-3.612-1.916-5.644-1.687    c-27.34,3.109-56.405,3.108-83.736,0c-2.027-0.227-4.071,0.378-5.644,1.687c-1.573,1.309-2.543,3.202-2.686,5.243    c-0.317,4.541-0.478,9.171-0.478,13.763c0,27.337,5.669,53.495,15.964,73.655c9.809,19.208,22.787,30.675,34.716,30.675    c23.918,0,50.67-44.618,50.67-104.33C306.668,250.338,306.507,245.707,306.19,241.167z M277.348,321.763    C268.92,338.269,259.964,344.26,256,344.26c-10.898,0-35.68-33.749-35.68-89.33c0-1.654,0.022-3.313,0.067-4.971    c23.413,2.151,47.794,2.152,71.215,0c0.045,1.657,0.067,3.316,0.067,4.971C291.67,279.94,286.583,303.675,277.348,321.763z" data-original="#000000" class="active-path" data-old_color="#000000" fill="#FFFFFF"/>
	</g>
</g></g> </svg>
