<?xml version="1.0" encoding="utf-8"?>
<!-- Generator: Adobe Illustrator 21.1.0, SVG Export Plug-In . SVG Version: 6.00 Build 0)  -->
<svg version="1.1" id="Capa_1" xmlns="http://www.w3.org/2000/svg" xmlns:xlink="http://www.w3.org/1999/xlink" x="0px" y="0px"
	 viewBox="0 0 512 512" style="enable-background:new 0 0 512 512;" xml:space="preserve">
<style type="text/css">
	.st0{fill:#DC2E2E;}
</style>
<g>
	<circle class="st0" cx="256" cy="256" r="10"/>
	<path class="st0" d="M13.1,315.4c-2.7,1.5-4.5,4.2-4.9,7.3c-0.4,3,0.6,6.1,2.7,8.3l86,88.9c3.2,3.3,8.2,4,12.2,1.7
		c36.6-21.1,69-47.6,96.8-78.8C192.7,382.4,186,423.7,186,466v36c0,3.1,1.4,6,3.8,7.9c2.4,1.9,5.6,2.6,8.6,1.8l120-30
		c4.5-1.1,7.6-5.1,7.6-9.7c0-43.5-7.3-89.1-20.4-129.9c6.1,6.9,12.5,13.6,19,20.1c3.9,3.9,10.3,3.8,14.1-0.1
		c3.9-3.9,3.8-10.3-0.1-14.1c-12.7-12.5-24.6-26-35.4-40.2c10.8-9.8,18.2-22.6,21.2-36.8c46.4,5.9,90.6,20.3,131.7,42.9l-28.3,99
		c-14.1-8.2-15.7-9-19.9-11.5c-4.7-2.8-10.9-1.3-13.7,3.4c-2.8,4.7-1.3,10.9,3.4,13.7c4.4,2.6,5.5,3.2,31.2,18.1
		c5.6,3.3,12.8,0.3,14.6-5.9l34-118.9c1.3-4.4-0.6-9.1-4.6-11.4c-36.6-21.1-75.7-36-116.6-44.4c40.9-8.4,80-23.3,116.6-44.4l26-15
		c2.7-1.5,4.5-4.2,4.9-7.3c0.4-3.1-0.6-6.1-2.7-8.3l-86-88.9c-3.2-3.3-8.2-4-12.2-1.7c-36.6,21.1-69,47.6-96.8,78.8
		C319.3,129.6,326,88.3,326,46V10c0-3.1-1.4-6-3.8-7.9c-2.4-1.9-5.6-2.6-8.6-1.8l-120,30c-4.5,1.1-7.6,5.1-7.6,9.7
		c0,43.5,7.3,89.1,20.4,129.8c-27.9-31.5-60.4-58.2-97.3-79.4l-26-15c-2.7-1.5-5.9-1.8-8.7-0.6c-2.9,1.2-5,3.6-5.9,6.5l-34,118.9
		c-1.3,4.4,0.6,9.1,4.6,11.4c36.6,21.1,75.7,36,116.6,44.4c-40.9,8.4-80,23.3-116.6,44.4L13.1,315.4z M206,489.2V466
		c0-49.6,9.7-97.7,28.8-143.3c6.8,2.2,13.9,3.3,21.2,3.3c7.3,0,14.4-1.1,21.2-3.3c17.4,42.3,27.7,92.9,28.7,141.5L206,489.2z
		 M256,306c-27.4,0-50-22-50-50c0-28,22.7-50,50-50c27,0,50,21.7,50,50C306,284.3,283,306,256,306z M406.2,111.7l71.6,74l-14.9,8.6
		c-42.9,24.8-89.5,40.5-138.5,46.7c-3.1-14.2-10.4-27-21.2-36.8C331.5,167,366.1,135.9,406.2,111.7L406.2,111.7z M306,22.8V46
		c0,49.6-9.7,97.7-28.8,143.3c-6.8-2.2-13.9-3.3-21.2-3.3c-7.3,0-14.4,1.1-21.2,3.3c-17.4-42.3-27.7-92.9-28.7-141.5L306,22.8z
		 M84.2,99.1l14.9,8.6c42.9,24.8,79.8,57.2,109.7,96.6c-10.8,9.8-18.2,22.6-21.2,36.8c-46.4-5.9-90.6-20.3-131.7-42.9L84.2,99.1z
		 M187.6,271c3.1,14.2,10.4,27,21.2,36.8c-28.3,37.3-62.9,68.3-103,92.6l-71.6-74l14.9-8.6C92.1,292.9,138.6,277.2,187.6,271
		L187.6,271z"/>
	<circle class="st0" cx="366" cy="384" r="10"/>
</g>
</svg>
