<?xml version="1.0"?>
<svg xmlns="http://www.w3.org/2000/svg" xmlns:xlink="http://www.w3.org/1999/xlink" version="1.1" id="Capa_1" x="0px" y="0px" viewBox="0 0 512 512" style="enable-background:new 0 0 512 512;" xml:space="preserve" width="512px" height="512px"><g><g>
	<g>
		<path d="M312.215,80.889c-1.194-2.549-3.433-4.441-6.142-5.191C289.846,71.2,273,68.92,256.001,68.92    c-17.02,0-33.887,2.285-50.13,6.791c-2.709,0.751-4.946,2.643-6.141,5.192c-1.197,2.555-1.218,5.495-0.058,8.066l0.001,0.001    l47.545,105.251c1.556,3.445,5.003,5.67,8.783,5.67c3.78,0,7.229-2.226,8.786-5.675l47.486-105.261    C313.433,86.384,313.413,83.444,312.215,80.889z M213.345,82.796L213.345,82.796c0.001,0.002,0.002,0.003,0.002,0.004    L213.345,82.796z M255.998,177.221l-40.032-88.624c13.049-3.105,26.487-4.677,40.036-4.677c13.529,0,26.949,1.568,39.981,4.667    L255.998,177.221z" data-original="#000000" class="active-path" data-old_color="#000000" fill="#FFFFFF"/>
	</g>
</g><g>
	<g>
		<path d="M406.323,144.616c-13.193-17.777-29.258-32.948-47.746-45.092c-2.33-1.532-5.212-1.975-7.897-1.217    c-2.695,0.76-4.925,2.649-6.118,5.186L281.72,237.308h-51.234L167.429,103.48c-1.192-2.528-3.421-4.413-6.112-5.171    c-2.689-0.757-5.563-0.313-7.895,1.216c-18.427,12.103-34.446,27.214-47.612,44.912c-2.09,2.808-2.492,6.536-1.052,9.726    l80.392,178.324c1.519,3.374,4.76,5.548,8.458,5.674c3.712,0.122,7.079-1.823,8.825-5.084l27.787-51.907h51.563l27.789,51.913    c1.693,3.161,4.924,5.089,8.488,5.089c0.111,0,0.223-0.002,0.335-0.006c3.695-0.125,6.937-2.296,8.457-5.664l47.694-105.542    c1.705-3.774,0.028-8.217-3.746-9.923c-3.776-1.707-8.218-0.029-9.924,3.746l-43.214,95.629l-24.172-45.153    c-1.681-3.139-4.936-5.088-8.496-5.088h-57.987c-3.561,0-6.815,1.95-8.497,5.089l-24.163,45.137l-74.611-165.503    c10.485-13.58,22.834-25.436,36.801-35.337l61.826,131.219c1.582,3.361,5.005,5.533,8.72,5.533h58.041    c3.719,0,7.143-2.175,8.725-5.541l61.617-131.208c14.02,9.94,26.41,21.852,36.922,35.496L374.156,191.4    c-1.705,3.774-0.028,8.217,3.746,9.923c3.778,1.708,8.218,0.028,9.924-3.746l19.54-43.24    C408.805,151.148,408.406,147.422,406.323,144.616z" data-original="#000000" class="active-path" data-old_color="#000000" fill="#FFFFFF"/>
	</g>
</g><g>
	<g>
		<path d="M180.138,408.025L91.867,212.07c-1.701-3.777-5.613-6.042-9.745-5.633c-4.118,0.407-7.507,3.388-8.433,7.414    c-3.165,13.744-4.77,27.924-4.77,42.147c0,68.628,37.487,131.647,97.834,164.464c1.445,0.786,3.024,1.17,4.595,1.17    c2.374,0,4.726-0.879,6.553-2.575C180.941,416.237,181.84,411.803,180.138,408.025z M83.92,255.998    c0-7.356,0.466-14.697,1.391-21.961l74.045,164.373C112.44,366.545,83.92,313.404,83.92,255.998z" data-original="#000000" class="active-path" data-old_color="#000000" fill="#FFFFFF"/>
	</g>
</g><g>
	<g>
		<path d="M312.462,425.558L262.839,315.36c-1.21-2.691-3.885-4.42-6.835-4.421c-0.001,0-0.001,0-0.002,0    c-2.949,0-5.625,1.729-6.837,4.417l-49.681,110.18c-0.895,1.984-0.884,4.259,0.031,6.234c0.914,1.975,2.642,3.456,4.733,4.057    c16.74,4.813,34.152,7.253,51.753,7.253c17.566,0,34.958-2.434,51.691-7.233c2.092-0.601,3.82-2.08,4.735-4.055    C313.343,429.817,313.356,427.542,312.462,425.558z M256.002,428.08c-13.266,0-26.41-1.505-39.19-4.48l39.186-86.905l39.14,86.917    C282.367,426.58,269.24,428.08,256.002,428.08z" data-original="#000000" class="active-path" data-old_color="#000000" fill="#FFFFFF"/>
	</g>
</g><g>
	<g>
		<path d="M438.411,214.277c-0.918-4.034-4.303-7.021-8.423-7.436c-4.133-0.411-8.05,1.846-9.756,5.623l-88.357,195.545    c-1.707,3.779-0.812,8.215,2.229,11.039c1.828,1.698,4.181,2.578,6.557,2.578c1.569,0,3.149-0.384,4.595-1.171    c60.34-32.817,97.824-95.833,97.824-164.458C443.08,241.914,441.51,227.877,438.411,214.277z M352.686,398.38l74.061-163.903    c0.887,7.118,1.333,14.312,1.333,21.521C428.08,313.389,399.581,366.515,352.686,398.38z" data-original="#000000" class="active-path" data-old_color="#000000" fill="#FFFFFF"/>
	</g>
</g><g>
	<g>
		<path d="M436.999,74.969C388.64,26.625,324.359,0,256,0C192.845,0,132.18,23.202,85.182,65.331    c-3.085,2.765-3.344,7.507-0.579,10.591c2.764,3.084,7.506,3.344,10.591,0.579C139.437,36.841,196.545,15,256,15    c132.888,0,241,108.093,241,240.957c0,64.393-25.075,124.929-70.606,170.457C380.872,471.932,320.358,497,256,497    s-124.872-25.068-170.394-70.587C40.075,380.885,15,320.349,15,255.957c0-56.207,19.78-110.916,55.696-154.049    c2.65-3.183,2.219-7.912-0.965-10.563c-3.181-2.649-7.911-2.22-10.563,0.964C21.014,138.132,0,196.25,0,255.957    c0,68.399,26.636,132.702,75.001,181.064C123.355,485.372,187.636,512,256,512s132.645-26.628,180.999-74.979    C485.364,388.659,512,324.356,512,255.957C512,187.595,485.364,123.319,436.999,74.969z" data-original="#000000" class="active-path" data-old_color="#000000" fill="#FFFFFF"/>
	</g>
</g><g>
	<g>
		<path d="M255.998,34.95c-121.857,0-220.995,99.156-220.995,221.036c0,41.635,11.688,82.225,33.803,117.381    c21.506,34.188,51.891,61.868,87.87,80.046c3.694,1.867,8.207,0.385,10.076-3.313c1.868-3.697,0.385-8.208-3.313-10.076    c-33.548-16.949-61.882-42.761-81.937-74.644c-20.607-32.761-31.5-70.589-31.5-109.394c0-113.608,92.409-206.036,205.995-206.036    c113.588,0,205.999,92.427,205.999,206.036c0,113.606-92.411,206.032-205.999,206.032c-22.205,0-44.059-3.53-64.952-10.491    c-3.934-1.307-8.178,0.815-9.486,4.745c-1.309,3.93,0.815,8.177,4.745,9.486c22.426,7.472,45.874,11.26,69.694,11.26    c121.859,0,220.999-99.154,220.999-221.032C476.997,134.107,377.857,34.95,255.998,34.95z" data-original="#000000" class="active-path" data-old_color="#000000" fill="#FFFFFF"/>
	</g>
</g></g> </svg>
