<svg id="Layer_1" data-name="Layer 1" xmlns="http://www.w3.org/2000/svg" viewBox="0 0 487.26 100.64"><defs><style>.cls-1{fill:#dc2e2e;}</style></defs><title>JRC Repair logo</title><path class="cls-1" d="M235.75,100.12c1.78-5.18,3.55-10.42,5.38-15.65,1.76-5,3.67-10,5.35-15.12,1.58-4.8-.65-8.37-5.94-8.6-9.51-.4-19-.35-28.56-.23-1.12,0-2.51,1.43-3.28,2.52-8.3,11.8-16.47,23.69-24.79,35.49a4.83,4.83,0,0,1-3.2,2c-14.13.13-28.26.09-42.38.07a12.8,12.8,0,0,1-1.66-.28c4.14-6,8.1-11.69,12.07-17.39,9.39-13.49,18.86-26.93,28.12-40.5,1.54-2.26,3.21-2.92,5.88-2.91q34.17.13,68.34,0a97,97,0,0,0,9.78-.8,12.5,12.5,0,0,0,8.85-5.37c.64-.85,1.13-1.79,1.73-2.66,4.28-6.19,3.31-8.3-4.41-9.26a39.8,39.8,0,0,0-4.92-.16c-22.67,0-45.34,0-68,0a5.58,5.58,0,0,1-5.33-2.74c-3.32-5-6.87-9.94-10.3-14.92-.62-.91-1.1-1.91-1.84-3.2a21.32,21.32,0,0,1,2.68-.4c41.29,0,82.58-.1,123.87.2a56.49,56.49,0,0,1,17.17,3.36c6.83,2.3,9.24,8.26,5.59,14.24a235.55,235.55,0,0,1-17,24.54c-4.12,5.16-10.92,6.67-17.41,7.89-3.73.7-7.52,1.13-12.11,1.8a35.26,35.26,0,0,0,3.35,1.74c6.93,2.62,9.21,7.32,7.3,14.29-2.74,10-5.2,20.08-7.91,30.09-.25.92-1.44,2.28-2.21,2.28-14.45.12-28.91.06-43.37,0C236.4,100.54,236.22,100.36,235.75,100.12Z"/><path class="cls-1" d="M358.83,77.18h4.44c19.05,0,38.1.06,57.15-.06,3,0,4.93.68,6.61,3.32,3.84,6.08,8.16,11.88,12.26,17.81.4.57.68,1.22,1.19,2.15-1.29.09-2.22.21-3.16.21-36.35,0-72.7.08-109-.1a34.64,34.64,0,0,1-12-2.36c-7.88-3.06-10.38-9.41-6.31-16.61,3.83-6.78,8.46-13.16,12.9-19.62,9.73-14.14,19.44-28.29,29.39-42.29,6-8.48,13.63-15.32,24.39-18A44.64,44.64,0,0,1,386.91.16c33-.12,65.91-.09,98.86-.09.32,0,.64.07,1.48.17-.61,1.12-1.06,2.11-1.67,3C482,8.46,478.21,13.62,474.68,18.9a5.11,5.11,0,0,1-4.85,2.42c-18.61-.07-37.23-.12-55.84,0a65.6,65.6,0,0,0-13,1.43c-4.44.94-7.61,4-10.1,7.55Q375.35,52.63,359.87,75A20.46,20.46,0,0,0,358.83,77.18Z"/><path class="cls-1" d="M0,100.38c5.3-7.64,10.18-14.82,15.27-21.85.61-.85,2.39-1.28,3.64-1.29,11.39-.1,22.78.18,34.16-.17A57.39,57.39,0,0,0,67.49,74.6c5.75-1.71,9.43-6.07,12.69-10.83,14-20.37,28.08-40.63,42.1-61A5.72,5.72,0,0,1,127.62,0c12.81.13,25.62.05,38.43.06,1.05,0,2.11.09,3.69.16A23.54,23.54,0,0,1,168.35,3q-26.41,38-52.89,75.92c-5.75,8.2-12.87,15.19-22.79,18.69a42.44,42.44,0,0,1-13.31,2.82c-25.62.27-51.24.15-76.87.15C1.88,100.61,1.26,100.5,0,100.38Z"/></svg>