<?xml version="1.0"?>
<svg xmlns="http://www.w3.org/2000/svg" xmlns:xlink="http://www.w3.org/1999/xlink" xmlns:svgjs="http://svgjs.com/svgjs" version="1.1" width="512" height="512" x="0" y="0" viewBox="0 0 512 512" style="enable-background:new 0 0 512 512" xml:space="preserve" class=""><g><g xmlns="http://www.w3.org/2000/svg" id="_30-appointment" data-name="30-appointment"><g id="linear_color" data-name="linear color"><path d="m509.265 77.521a12 12 0 0 0 -12-12h-53.414a51.988 51.988 0 0 0 -101.173 0h-18.827a51.988 51.988 0 0 0 -101.173 0h-18.827a51.988 51.988 0 0 0 -101.173 0h-21.418a12.087 12.087 0 0 0 -11.66 9.171l-64 264a12 12 0 0 0 11.66 14.828h52v44a12 12 0 0 0 12 12h212.41a108 108 0 0 0 215.3-9.37c-.003-1.263.295-322.629.295-322.629zm-24 252.53a109 109 0 0 0 -16-16.158v-76.373a12 12 0 1 0 -24 0v61.493a107.1 107.1 0 0 0 -27.374-8.168l48.809-201.324h18.562zm-394.565-240.53h11.975a52.079 52.079 0 0 0 50.587 40 12 12 0 1 0 0-24 28.032 28.032 0 0 1 -25.293-16h94.706a52.079 52.079 0 0 0 50.587 40 12 12 0 1 0 0-24 28.032 28.032 0 0 1 -25.293-16h94.706a52.079 52.079 0 0 0 50.587 40 12 12 0 1 0 0-24 28.032 28.032 0 0 1 -25.293-16h74.031l-13.577 56h-351.295zm302.562-40a28.034 28.034 0 0 1 25.292 16h-50.581a28.031 28.031 0 0 1 25.292-16zm-120 0a28.034 28.034 0 0 1 25.292 16h-50.581a28.031 28.031 0 0 1 25.292-16zm-120 0a28.034 28.034 0 0 1 25.292 16h-50.581a28.031 28.031 0 0 1 25.292-16zm-81.961 120h351.3l-29.154 120.269a107.886 107.886 0 0 0 -76.283 39.73h-284.647zm21.956 184h209.121a107.134 107.134 0 0 0 -8.708 32h-200.41zm319.743 127.129v-11.129a12 12 0 1 0 -24 0v11.129a84.17 84.17 0 0 1 -71.129-71.129h11.129a12 12 0 0 0 0-24h-11.129a84.17 84.17 0 0 1 71.129-71.128v11.128a12 12 0 0 0 24 0v-11.128a84.17 84.17 0 0 1 71.129 71.128h-11.129a12 12 0 0 0 0 24h11.129a84.17 84.17 0 0 1 -71.129 71.129z" fill="#dc2e2e" data-original="#000000" style=""/><path d="m261.265 213.521h32a12 12 0 0 0 0-24h-32a12 12 0 0 0 0 24z" fill="#dc2e2e" data-original="#000000" style=""/><path d="m181.265 213.521h32a12 12 0 0 0 0-24h-32a12 12 0 0 0 0 24z" fill="#dc2e2e" data-original="#000000" style=""/><path d="m101.265 213.521h32a12 12 0 0 0 0-24h-32a12 12 0 0 0 0 24z" fill="#dc2e2e" data-original="#000000" style=""/><path d="m341.265 213.521h32a12 12 0 0 0 0-24h-32a12 12 0 0 0 0 24z" fill="#dc2e2e" data-original="#000000" style=""/><path d="m245.265 261.521h32a12 12 0 1 0 0-24h-32a12 12 0 1 0 0 24z" fill="#dc2e2e" data-original="#000000" style=""/><path d="m165.265 261.521h32a12 12 0 0 0 0-24h-32a12 12 0 1 0 0 24z" fill="#dc2e2e" data-original="#000000" style=""/><path d="m85.265 261.521h32a12 12 0 0 0 0-24h-32a12 12 0 1 0 0 24z" fill="#dc2e2e" data-original="#000000" style=""/><path d="m325.265 261.521h32a12 12 0 0 0 0-24h-32a12 12 0 1 0 0 24z" fill="#dc2e2e" data-original="#000000" style=""/><path d="m237.265 309.521h32a12 12 0 0 0 0-24h-32a12 12 0 0 0 0 24z" fill="#dc2e2e" data-original="#000000" style=""/><path d="m157.265 309.521h32a12 12 0 0 0 0-24h-32a12 12 0 0 0 0 24z" fill="#dc2e2e" data-original="#000000" style=""/><path d="m121.265 297.521a12 12 0 0 0 -12-12h-32a12 12 0 1 0 0 24h32a12 12 0 0 0 12-12z" fill="#dc2e2e" data-original="#000000" style=""/><path d="m424.515 357.036-25.884 25.884-24.265-12.132a12 12 0 0 0 -10.732 21.467l32 16a12 12 0 0 0 13.851-2.248l32-32a12 12 0 0 0 -16.97-16.971z" fill="#dc2e2e" data-original="#000000" style=""/></g></g></g></svg>
