<?xml version="1.0"?>
<svg xmlns="http://www.w3.org/2000/svg" xmlns:xlink="http://www.w3.org/1999/xlink" xmlns:svgjs="http://svgjs.com/svgjs" version="1.1" width="512" height="512" x="0" y="0" viewBox="0 0 511.794 511.794" style="enable-background:new 0 0 512 512" xml:space="preserve" class=""><g><g xmlns="http://www.w3.org/2000/svg" id="XMLID_1375_"><g id="XMLID_1589_"><g id="XMLID_153_"><path id="XMLID_570_" d="m186.057 154.841c2.63 0 5.21-1.07 7.07-2.93 1.86-1.87 2.93-4.44 2.93-7.07 0-2.641-1.07-5.22-2.93-7.08s-4.44-2.92-7.07-2.92c-2.64 0-5.21 1.06-7.07 2.92s-2.93 4.439-2.93 7.08c0 2.63 1.07 5.2 2.93 7.07 1.86 1.859 4.44 2.93 7.07 2.93z" fill="#dc2e2e" data-original="#000000" style="" class=""/><path id="XMLID_1344_" d="m325.912 188.586c0 17.645 14.355 32 32 32s32-14.355 32-32-14.355-32-32-32-32 14.355-32 32zm31.999-12c6.617 0 12 5.383 12 12s-5.383 12-12 12-12-5.383-12-12 5.383-12 12-12z" fill="#dc2e2e" data-original="#000000" style="" class=""/><path id="XMLID_1347_" d="m447.794 151.51c17.645 0 32-14.355 32-32s-14.355-32-32-32-32 14.355-32 32 14.355 32 32 32zm0-44c6.617 0 12 5.383 12 12s-5.383 12-12 12-12-5.383-12-12 5.383-12 12-12z" fill="#dc2e2e" data-original="#000000" style="" class=""/><path id="XMLID_1352_" d="m490.114 350.833c12.615-11.706 19.882-28.104 19.882-45.736 0-34.472-28.044-62.516-62.515-62.516-13.616 0-26.647 4.372-37.407 12.436-10.867-5.561-22.902-8.474-35.211-8.474-26.437 0-50.408 13.111-64.637 34.774-.079-.022-.157-.048-.237-.07-7.819-2.094-15.985-1.02-22.994 3.027l-6.667 3.849-63.115-109.318c-2.761-4.783-8.878-6.423-13.66-3.66-4.783 2.762-6.422 8.877-3.66 13.66l35.917 62.21-24.249 14-116.833-202.36 24.249-14 35.917 62.208c2.761 4.782 8.876 6.421 13.66 3.66 4.783-2.762 6.422-8.877 3.66-13.66l-40.917-70.868c-2.761-4.782-8.878-6.423-13.66-3.66l-41.569 24c-2.297 1.326-3.973 3.51-4.659 6.072-.687 2.562-.327 5.291.999 7.588l100.368 173.842h-162.776c-5.523 0-10 4.477-10 10v190.173c0 36.117 29.383 65.5 65.5 65.5h113.127c16.496 0 31.86-6.085 43.592-16.549l.162 2.096c.328 4.228 3.286 7.79 7.382 8.888 13.976 3.745 28.157 5.598 42.248 5.598 28.107 0 55.849-7.373 80.843-21.803 1.227-.708 2.44-1.432 3.644-2.168 16.999 15.298 39.255 23.939 62.276 23.939 51.292 0 93.021-41.729 93.021-93.021-.001-21.839-7.792-43.019-21.681-59.657zm-193.118-49.237c1.587-.917 3.349-1.385 5.134-1.385.895 0 1.796.118 2.683.355 2.658.713 4.88 2.417 6.256 4.801l6.849 11.862-90.066 52-6.849-11.862c-2.84-4.92-1.149-11.233 3.771-14.073zm-51.185-33.259 17.167 29.733-24.249 14-17.166-29.733zm-39.039 28.383h-38.484v-38.883h16.035zm-58.484-38.883v71.087c0 7.787-6.336 14.123-14.124 14.123s-14.123-6.336-14.123-14.123c0-5.522-4.477-10-10-10s-10 4.478-10 10v37.462c0 7.788-6.335 14.124-14.123 14.124s-14.123-6.336-14.123-14.124v-59.656c0-.003 0-.007 0-.01s0-.006 0-.01v-48.873zm-96.494 0v38.883h-31.794v-38.883zm126.833 225.673h-113.127c-25.089 0-45.5-20.411-45.5-45.5v-121.29h31.794v49.666c0 18.816 15.308 34.124 34.123 34.124s34.123-15.308 34.123-34.124v-6.4c4.306 1.966 9.089 3.061 14.123 3.061 18.816 0 34.124-15.308 34.124-34.123v-12.204h50.031l3.12 5.405-6.667 3.849c-14.469 8.354-19.445 26.923-11.091 41.393l10.714 18.557 5.515 71.233c-7.445 16.08-23.409 26.353-41.282 26.353zm63.134-3.231-7.114-91.88 48.237-27.85 48.237-27.85 76.013 52.101c-10.797 33.704-33.418 61.799-64.281 79.618-30.863 17.82-66.504 23.363-101.092 15.861zm177.012 3.231c-16.519 0-32.54-5.666-45.364-15.813 26.772-21.433 45.98-50.707 55.023-84.455 1.098-4.096-.508-8.438-4.005-10.836l-85.323-58.482-10.714-18.557c-.531-.919-1.106-1.801-1.719-2.65 10.525-16.295 28.432-26.174 48.194-26.174 10.99 0 21.682 3.129 30.92 9.047 3.888 2.492 8.975 1.997 12.31-1.197 7.956-7.617 18.393-11.812 29.388-11.812 23.443 0 42.515 19.072 42.515 42.516 0 14.758-7.492 28.247-20.042 36.085-2.64 1.648-4.362 4.433-4.657 7.531-.296 3.099.868 6.158 3.148 8.276 14.838 13.784 23.348 33.283 23.348 53.499-.001 40.265-32.758 73.022-73.022 73.022z" fill="#dc2e2e" data-original="#000000" style="" class=""/><path id="XMLID_1366_" d="m232.46 84.252h11.108c1.177 5.285 3.264 10.228 6.091 14.659l-7.868 7.868c-3.905 3.905-3.905 10.237 0 14.143 1.953 1.952 4.512 2.929 7.071 2.929s5.119-.977 7.071-2.929l7.868-7.868c4.432 2.826 9.374 4.914 14.659 6.09v11.108c0 5.523 4.477 10 10 10s10-4.477 10-10v-11.108c5.285-1.177 10.227-3.264 14.659-6.09l7.868 7.868c1.953 1.952 4.512 2.929 7.071 2.929s5.119-.977 7.071-2.929c3.905-3.905 3.905-10.237 0-14.143l-7.868-7.868c2.826-4.432 4.914-9.374 6.091-14.659h11.108c5.523 0 10-4.478 10-10s-4.477-10-10-10h-11.108c-1.177-5.285-3.264-10.227-6.09-14.659l7.867-7.868c3.905-3.905 3.905-10.237 0-14.143-3.905-3.904-10.237-3.904-14.143 0l-7.867 7.868c-4.432-2.826-9.374-4.914-14.66-6.091v-11.107c0-5.523-4.477-10-10-10s-10 4.477-10 10v11.108c-5.285 1.177-10.228 3.264-14.659 6.091l-7.867-7.868c-3.905-3.904-10.237-3.904-14.143 0-3.905 3.905-3.905 10.237 0 14.143l7.867 7.868c-2.826 4.431-4.914 9.374-6.09 14.659h-11.107c-5.523 0-10 4.478-10 10s4.477 9.999 10 9.999zm56-36c14.336 0 26 11.663 26 26s-11.664 26-26 26-26-11.663-26-26 11.664-26 26-26z" fill="#dc2e2e" data-original="#000000" style="" class=""/></g></g></g></g></svg>
