<?xml version="1.0"?>
<svg xmlns="http://www.w3.org/2000/svg" xmlns:xlink="http://www.w3.org/1999/xlink" xmlns:svgjs="http://svgjs.com/svgjs" version="1.1" width="512" height="512" x="0" y="0" viewBox="0 0 512 512" style="enable-background:new 0 0 512 512" xml:space="preserve" class=""><g><g xmlns="http://www.w3.org/2000/svg" id="XMLID_50_"><g id="XMLID_251_"><path id="XMLID_736_" d="m512 105.74c0-22.343-8.701-43.348-24.5-59.147l-22.092-22.093c-15.8-15.799-36.805-24.5-59.148-24.5-19.053 0-37.121 6.346-51.829 18.007-19.623-16.206-48.81-15.139-67.164 3.215h-.001l-266.044 266.046c-18.354 18.354-19.422 47.542-3.215 67.164-11.66 14.708-18.007 32.775-18.007 51.828 0 22.343 8.701 43.348 24.5 59.147l22.092 22.093c15.8 15.799 36.805 24.5 59.148 24.5 19.053 0 37.121-6.347 51.829-18.007 9.202 7.6 20.502 11.405 31.809 11.405 12.802 0 25.609-4.875 35.355-14.621l266.045-266.045c18.354-18.354 19.421-47.542 3.215-67.164 11.66-14.708 18.007-32.775 18.007-51.828zm-105.74-85.74c17 0 32.984 6.621 45.005 18.642l22.093 22.093c12.021 12.021 18.642 28.004 18.642 45.005 0 13.619-4.249 26.586-12.12 37.385l-111.005-111.005c10.799-7.871 23.766-12.12 37.385-12.12zm-300.52 472c-17 0-32.984-6.621-45.005-18.642l-22.093-22.093c-12.021-12.021-18.642-28.004-18.642-45.005 0-13.619 4.249-26.586 12.12-37.385l111.005 111.005c-10.799 7.871-23.766 12.12-37.385 12.12zm370.896-281.409-266.045 266.044c-11.698 11.697-30.73 11.697-42.426 0l-129.523-129.522c-.002-.002-3.278-3.277-3.278-3.277-11.696-11.696-11.696-30.729 0-42.426l266.045-266.046c11.698-11.697 30.73-11.697 42.426 0l132.8 132.8c11.697 11.697 11.697 30.73.001 42.427z" fill="#dc2e2e" data-original="#000000" style="" class=""/><path id="XMLID_740_" d="m280.683 231.317c1.953 1.953 4.512 2.929 7.071 2.929s5.119-.976 7.071-2.929l76.687-76.687c3.905-3.905 3.905-10.237 0-14.143-3.905-3.905-10.237-3.905-14.143 0l-76.687 76.687c-3.904 3.906-3.904 10.238.001 14.143z" fill="#dc2e2e" data-original="#000000" style="" class=""/><path id="XMLID_741_" d="m231.19 280.81c-3.905-3.905-10.237-3.905-14.143 0l-76.561 76.56c-3.905 3.905-3.905 10.237 0 14.143 1.953 1.953 4.512 2.929 7.071 2.929s5.119-.976 7.071-2.929l76.561-76.561c3.906-3.905 3.906-10.237.001-14.142z" fill="#dc2e2e" data-original="#000000" style="" class=""/><path id="XMLID_742_" d="m327.327 96.301c-3.905-3.905-10.237-3.905-14.143 0l-216.883 216.883c-3.905 3.905-3.905 10.237 0 14.143 1.953 1.953 4.512 2.929 7.071 2.929s5.119-.976 7.071-2.929l216.883-216.883c3.906-3.905 3.906-10.238.001-14.143z" fill="#dc2e2e" data-original="#000000" style="" class=""/><path id="XMLID_743_" d="m401.556 184.673-216.883 216.883c-3.905 3.905-3.905 10.237 0 14.142 1.953 1.953 4.512 2.929 7.071 2.929s5.119-.976 7.071-2.929l216.883-216.883c3.905-3.905 3.905-10.237 0-14.143-3.905-3.904-10.237-3.904-14.142.001z" fill="#dc2e2e" data-original="#000000" style="" class=""/><path id="XMLID_744_" d="m248.99 249.12c-1.86 1.86-2.93 4.441-2.93 7.07 0 2.63 1.07 5.21 2.93 7.07s4.44 2.93 7.07 2.93c2.64 0 5.21-1.07 7.07-2.93 1.87-1.86 2.93-4.44 2.93-7.07s-1.06-5.21-2.93-7.07c-1.86-1.86-4.43-2.93-7.07-2.93-2.63 0-5.21 1.07-7.07 2.93z" fill="#dc2e2e" data-original="#000000" style="" class=""/></g></g></g></svg>
